<svg xmlns="http://www.w3.org/2000/svg" version="1.1" xmlns:xlink="http://www.w3.org/1999/xlink" xmlns:svgjs="http://svgjs.dev/svgjs" width="1920" height="1080" preserveAspectRatio="none" viewBox="0 0 1920 1080"><g mask="url(&quot;#SvgjsMask1117&quot;)" fill="none"><rect width="1920" height="1080" x="0" y="0" fill="rgba(255, 255, 255, 1)"></rect><path d="M1133.987651997738 229.38913268159226L1362.7057408172998 269.71830271655597 1174.3168220327018 0.6710438620306718z" fill="rgba(218, 218, 218, 1)" class="triangle-float2"></path><path d="M1904.7258423839442 557.8378163085173L1564.076479802235 695.0915974229991 1813.5743815611968 897.1310145830628z" fill="rgba(218, 218, 218, 1)" class="triangle-float3"></path><path d="M1437.9006679204492 685.093023125217L1100.226169554207 555.102562058551 1144.2462174794991 868.3214782440755z" fill="rgba(218, 218, 218, 1)" class="triangle-float1"></path><path d="M230.79834529822006 303.13954829181944L397.1434533351408 407.0835081441371 469.8868390951569 105.59386616259715z" fill="rgba(218, 218, 218, 1)" class="triangle-float2"></path><path d="M407.9671090407775 873.8795319823523L236.0678496665608 669.0179720588458 203.1055491172709 1045.778791356569z" fill="rgba(218, 218, 218, 1)" class="triangle-float3"></path><path d="M491.4564328899678 778.8497359091875L539.4133728753876 553.2300720953301 265.8367690761104 730.8927959237677z" fill="rgba(218, 218, 218, 1)" class="triangle-float3"></path><path d="M1150.6541127609246-108.24720392275887L1056.63490449732 42.214981454589264 1301.1162981382727-14.22799565915426z" fill="rgba(218, 218, 218, 1)" class="triangle-float1"></path><path d="M1841.9489352743647 181.35342771868432L1720.7331399278912 79.64129855059781 1628.7728438489983 312.3210561543512z" fill="rgba(218, 218, 218, 1)" class="triangle-float3"></path><path d="M1494.3340976907891 1063.9970760982337L1793.3229263823623 949.2260178861736 1379.563039478729 765.0082474066606z" fill="rgba(218, 218, 218, 1)" class="triangle-float3"></path><path d="M1543.8477605629841 503.81379289378805L1592.3534378726347 383.7580286686192 1388.0169528800561 371.027394816728z" fill="rgba(218, 218, 218, 1)" class="triangle-float1"></path><path d="M1842.686824538805 674.3269057873129L2031.656379729549 547.1271901278303 1854.2336726351946 456.7258055450611z" fill="rgba(218, 218, 218, 1)" class="triangle-float1"></path><path d="M1003.5310367717753 779.2155329101276L947.6578506707048 1042.0782065537176 1266.3937104153651 835.0887190111982z" fill="rgba(218, 218, 218, 1)" class="triangle-float3"></path><path d="M1089.1466786166611 139.95553196216986L941.4838388593248-115.80400888743821 833.387137767053 287.6183717195061z" fill="rgba(218, 218, 218, 1)" class="triangle-float1"></path><path d="M304.37800836554095 1019.522381879173L162.39998057917475 762.810567706571 26.507096639605948 980.284642126031z" fill="rgba(218, 218, 218, 1)" class="triangle-float3"></path><path d="M-219.02995264676167 630.3678867182709L-70.53825858052375 898.2539940749186 48.85615470988597 481.876192652033z" fill="rgba(218, 218, 218, 1)" class="triangle-float3"></path><path d="M745.1321943483595 677.1694934805338L639.4360806925249 839.9272357105176 907.8899365783432 782.8656071363683z" fill="rgba(218, 218, 218, 1)" class="triangle-float3"></path></g><defs><mask id="SvgjsMask1117"><rect width="1920" height="1080" fill="#ffffff"></rect></mask><style>
                @keyframes float1 {
                    0%{transform: translate(0, 0)}
                    50%{transform: translate(-10px, 0)}
                    100%{transform: translate(0, 0)}
                }

                .triangle-float1 {
                    animation: float1 5s infinite;
                }

                @keyframes float2 {
                    0%{transform: translate(0, 0)}
                    50%{transform: translate(-5px, -5px)}
                    100%{transform: translate(0, 0)}
                }

                .triangle-float2 {
                    animation: float2 4s infinite;
                }

                @keyframes float3 {
                    0%{transform: translate(0, 0)}
                    50%{transform: translate(0, -10px)}
                    100%{transform: translate(0, 0)}
                }

                .triangle-float3 {
                    animation: float3 6s infinite;
                }
            </style></defs></svg>