<svg xmlns="http://www.w3.org/2000/svg" version="1.1" xmlns:xlink="http://www.w3.org/1999/xlink" xmlns:svgjs="http://svgjs.dev/svgjs" width="1980" height="560" preserveAspectRatio="none" viewBox="0 0 1980 560"><g mask="url(&quot;#SvgjsMask1242&quot;)" fill="none"><rect width="1980" height="560" x="0" y="0" fill="rgba(255, 255, 255, 1)"></rect><g mask="url(&quot;#SvgjsMask1243&quot;)"><path d="M416.5 318.5L465.5 367.5M24.5 269.5L73.5 269.5M122.5 318.5L171.5 269.5M-24.5 269.5L24.5 269.5L73.5 318.5L122.5 318.5L171.5 318.5L220.5 318.5L269.5 318.5L318.5 318.5L367.5 318.5L416.5 318.5L465.5 318.5L514.5 318.5L563.5 318.5" stroke="rgba(218, 218, 218, 1)" stroke-width="8.17"></path><path d="M551.25 318.5 a12.25 12.25 0 1 0 24.5 0 a12.25 12.25 0 1 0 -24.5 0zM453.25 367.5 a12.25 12.25 0 1 0 24.5 0 a12.25 12.25 0 1 0 -24.5 0zM61.25 269.5 a12.25 12.25 0 1 0 24.5 0 a12.25 12.25 0 1 0 -24.5 0zM159.25 269.5 a12.25 12.25 0 1 0 24.5 0 a12.25 12.25 0 1 0 -24.5 0z" fill="rgba(218, 218, 218, 1)"></path><path d="M1396.5 367.5L1445.5 367.5L1494.5 367.5L1543.5 367.5M710.5 318.5L759.5 269.5L808.5 269.5L857.5 269.5L906.5 269.5L955.5 269.5L1004.5 269.5L1053.5 269.5L1102.5 269.5L1151.5 269.5M1494.5 416.5L1543.5 465.5L1592.5 465.5L1641.5 465.5L1690.5 465.5L1739.5 465.5L1788.5 465.5L1837.5 465.5L1886.5 465.5M857.5 367.5L906.5 318.5L955.5 318.5L1004.5 318.5L1053.5 318.5L1102.5 318.5M1445.5 416.5L1494.5 465.5M808.5 367.5L857.5 318.5M1347.5 367.5L1396.5 416.5L1445.5 465.5M1641.5 416.5L1690.5 367.5L1739.5 367.5M1298.5 367.5L1347.5 416.5L1396.5 465.5M367.5 367.5L416.5 367.5M-24.5 318.5L24.5 318.5L73.5 367.5L122.5 367.5L171.5 367.5L220.5 367.5L269.5 367.5L318.5 367.5L367.5 367.5L416.5 416.5L465.5 416.5L514.5 367.5L563.5 367.5L612.5 367.5L661.5 367.5L710.5 318.5L759.5 318.5L808.5 367.5L857.5 367.5L906.5 367.5L955.5 367.5L1004.5 367.5L1053.5 367.5L1102.5 367.5L1151.5 367.5L1200.5 367.5L1249.5 367.5L1298.5 367.5L1347.5 367.5L1396.5 367.5L1445.5 416.5L1494.5 416.5L1543.5 416.5L1592.5 416.5L1641.5 416.5L1690.5 416.5L1739.5 416.5L1788.5 416.5L1837.5 416.5L1886.5 416.5" stroke="rgba(218, 218, 218, 1)" stroke-width="8.17"></path><path d="M1874.25 416.5 a12.25 12.25 0 1 0 24.5 0 a12.25 12.25 0 1 0 -24.5 0zM1531.25 367.5 a12.25 12.25 0 1 0 24.5 0 a12.25 12.25 0 1 0 -24.5 0zM1139.25 269.5 a12.25 12.25 0 1 0 24.5 0 a12.25 12.25 0 1 0 -24.5 0zM1874.25 465.5 a12.25 12.25 0 1 0 24.5 0 a12.25 12.25 0 1 0 -24.5 0zM1090.25 318.5 a12.25 12.25 0 1 0 24.5 0 a12.25 12.25 0 1 0 -24.5 0zM1482.25 465.5 a12.25 12.25 0 1 0 24.5 0 a12.25 12.25 0 1 0 -24.5 0zM845.25 318.5 a12.25 12.25 0 1 0 24.5 0 a12.25 12.25 0 1 0 -24.5 0zM1433.25 465.5 a12.25 12.25 0 1 0 24.5 0 a12.25 12.25 0 1 0 -24.5 0zM1727.25 367.5 a12.25 12.25 0 1 0 24.5 0 a12.25 12.25 0 1 0 -24.5 0zM1384.25 465.5 a12.25 12.25 0 1 0 24.5 0 a12.25 12.25 0 1 0 -24.5 0zM404.25 367.5 a12.25 12.25 0 1 0 24.5 0 a12.25 12.25 0 1 0 -24.5 0z" fill="rgba(218, 218, 218, 1)"></path><path d="M171.5 220.5L220.5 220.5L269.5 220.5L318.5 220.5L367.5 220.5M906.5 220.5L955.5 171.5L1004.5 171.5L1053.5 171.5M1445.5 220.5L1494.5 171.5L1543.5 171.5M759.5 220.5L808.5 171.5L857.5 171.5M612.5 269.5L661.5 269.5L710.5 269.5M1494.5 220.5L1543.5 220.5L1592.5 220.5L1641.5 220.5L1690.5 220.5L1739.5 220.5L1788.5 220.5M465.5 269.5L514.5 220.5M1396.5 220.5L1445.5 171.5L1494.5 122.5L1543.5 122.5M-24.5 220.5L24.5 220.5L73.5 220.5L122.5 220.5L171.5 220.5L220.5 269.5L269.5 269.5L318.5 269.5L367.5 269.5L416.5 269.5L465.5 269.5L514.5 269.5L563.5 269.5L612.5 269.5L661.5 220.5L710.5 220.5L759.5 220.5L808.5 220.5L857.5 220.5L906.5 220.5L955.5 220.5L1004.5 220.5L1053.5 220.5L1102.5 220.5L1151.5 220.5L1200.5 220.5L1249.5 220.5L1298.5 220.5L1347.5 220.5L1396.5 220.5L1445.5 220.5L1494.5 220.5L1543.5 269.5" stroke="rgba(218, 218, 218, 1)" stroke-width="8.17"></path><path d="M1531.25 269.5 a12.25 12.25 0 1 0 24.5 0 a12.25 12.25 0 1 0 -24.5 0zM355.25 220.5 a12.25 12.25 0 1 0 24.5 0 a12.25 12.25 0 1 0 -24.5 0zM1041.25 171.5 a12.25 12.25 0 1 0 24.5 0 a12.25 12.25 0 1 0 -24.5 0zM1531.25 171.5 a12.25 12.25 0 1 0 24.5 0 a12.25 12.25 0 1 0 -24.5 0zM845.25 171.5 a12.25 12.25 0 1 0 24.5 0 a12.25 12.25 0 1 0 -24.5 0zM698.25 269.5 a12.25 12.25 0 1 0 24.5 0 a12.25 12.25 0 1 0 -24.5 0zM1776.25 220.5 a12.25 12.25 0 1 0 24.5 0 a12.25 12.25 0 1 0 -24.5 0zM502.25 220.5 a12.25 12.25 0 1 0 24.5 0 a12.25 12.25 0 1 0 -24.5 0zM1531.25 122.5 a12.25 12.25 0 1 0 24.5 0 a12.25 12.25 0 1 0 -24.5 0z" fill="rgba(218, 218, 218, 1)"></path><path d="M220.5 416.5L269.5 465.5L318.5 465.5M808.5 416.5L857.5 465.5L906.5 465.5M563.5 416.5L612.5 465.5M465.5 465.5L514.5 465.5L563.5 465.5M-24.5 367.5L24.5 367.5L73.5 416.5L122.5 416.5L171.5 416.5L220.5 416.5L269.5 416.5L318.5 416.5L367.5 416.5L416.5 465.5L465.5 465.5L514.5 416.5L563.5 416.5L612.5 416.5L661.5 416.5L710.5 367.5L759.5 367.5L808.5 416.5L857.5 416.5" stroke="rgba(218, 218, 218, 1)" stroke-width="8.17"></path><path d="M845.25 416.5 a12.25 12.25 0 1 0 24.5 0 a12.25 12.25 0 1 0 -24.5 0zM306.25 465.5 a12.25 12.25 0 1 0 24.5 0 a12.25 12.25 0 1 0 -24.5 0zM894.25 465.5 a12.25 12.25 0 1 0 24.5 0 a12.25 12.25 0 1 0 -24.5 0zM600.25 465.5 a12.25 12.25 0 1 0 24.5 0 a12.25 12.25 0 1 0 -24.5 0zM551.25 465.5 a12.25 12.25 0 1 0 24.5 0 a12.25 12.25 0 1 0 -24.5 0z" fill="rgba(218, 218, 218, 1)"></path><path d="M416.5 171.5L465.5 220.5M612.5 171.5L661.5 122.5L710.5 122.5L759.5 122.5L808.5 122.5M465.5 171.5L514.5 122.5L563.5 122.5L612.5 122.5M-24.5 171.5L24.5 171.5L73.5 171.5L122.5 171.5L171.5 171.5L220.5 171.5L269.5 171.5L318.5 171.5L367.5 171.5L416.5 171.5L465.5 171.5L514.5 171.5L563.5 171.5L612.5 171.5L661.5 171.5" stroke="rgba(218, 218, 218, 1)" stroke-width="8.17"></path><path d="M649.25 171.5 a12.25 12.25 0 1 0 24.5 0 a12.25 12.25 0 1 0 -24.5 0zM453.25 220.5 a12.25 12.25 0 1 0 24.5 0 a12.25 12.25 0 1 0 -24.5 0zM796.25 122.5 a12.25 12.25 0 1 0 24.5 0 a12.25 12.25 0 1 0 -24.5 0zM600.25 122.5 a12.25 12.25 0 1 0 24.5 0 a12.25 12.25 0 1 0 -24.5 0z" fill="rgba(218, 218, 218, 1)"></path></g></g><defs><mask id="SvgjsMask1242"><rect width="1980" height="560" fill="#ffffff"></rect></mask><mask id="SvgjsMask1243"><rect width="1980" height="560" fill="white"></rect><path d="M557.37 318.5 a6.13 6.13 0 1 0 12.26 0 a6.13 6.13 0 1 0 -12.26 0zM459.37 367.5 a6.13 6.13 0 1 0 12.26 0 a6.13 6.13 0 1 0 -12.26 0zM67.37 269.5 a6.13 6.13 0 1 0 12.26 0 a6.13 6.13 0 1 0 -12.26 0zM165.37 269.5 a6.13 6.13 0 1 0 12.26 0 a6.13 6.13 0 1 0 -12.26 0z" fill="black"></path><path d="M1880.37 416.5 a6.13 6.13 0 1 0 12.26 0 a6.13 6.13 0 1 0 -12.26 0zM1537.37 367.5 a6.13 6.13 0 1 0 12.26 0 a6.13 6.13 0 1 0 -12.26 0zM1145.37 269.5 a6.13 6.13 0 1 0 12.26 0 a6.13 6.13 0 1 0 -12.26 0zM1880.37 465.5 a6.13 6.13 0 1 0 12.26 0 a6.13 6.13 0 1 0 -12.26 0zM1096.37 318.5 a6.13 6.13 0 1 0 12.26 0 a6.13 6.13 0 1 0 -12.26 0zM1488.37 465.5 a6.13 6.13 0 1 0 12.26 0 a6.13 6.13 0 1 0 -12.26 0zM851.37 318.5 a6.13 6.13 0 1 0 12.26 0 a6.13 6.13 0 1 0 -12.26 0zM1439.37 465.5 a6.13 6.13 0 1 0 12.26 0 a6.13 6.13 0 1 0 -12.26 0zM1733.37 367.5 a6.13 6.13 0 1 0 12.26 0 a6.13 6.13 0 1 0 -12.26 0zM1390.37 465.5 a6.13 6.13 0 1 0 12.26 0 a6.13 6.13 0 1 0 -12.26 0zM410.37 367.5 a6.13 6.13 0 1 0 12.26 0 a6.13 6.13 0 1 0 -12.26 0z" fill="black"></path><path d="M1537.37 269.5 a6.13 6.13 0 1 0 12.26 0 a6.13 6.13 0 1 0 -12.26 0zM361.37 220.5 a6.13 6.13 0 1 0 12.26 0 a6.13 6.13 0 1 0 -12.26 0zM1047.37 171.5 a6.13 6.13 0 1 0 12.26 0 a6.13 6.13 0 1 0 -12.26 0zM1537.37 171.5 a6.13 6.13 0 1 0 12.26 0 a6.13 6.13 0 1 0 -12.26 0zM851.37 171.5 a6.13 6.13 0 1 0 12.26 0 a6.13 6.13 0 1 0 -12.26 0zM704.37 269.5 a6.13 6.13 0 1 0 12.26 0 a6.13 6.13 0 1 0 -12.26 0zM1782.37 220.5 a6.13 6.13 0 1 0 12.26 0 a6.13 6.13 0 1 0 -12.26 0zM508.37 220.5 a6.13 6.13 0 1 0 12.26 0 a6.13 6.13 0 1 0 -12.26 0zM1537.37 122.5 a6.13 6.13 0 1 0 12.26 0 a6.13 6.13 0 1 0 -12.26 0z" fill="black"></path><path d="M851.37 416.5 a6.13 6.13 0 1 0 12.26 0 a6.13 6.13 0 1 0 -12.26 0zM312.37 465.5 a6.13 6.13 0 1 0 12.26 0 a6.13 6.13 0 1 0 -12.26 0zM900.37 465.5 a6.13 6.13 0 1 0 12.26 0 a6.13 6.13 0 1 0 -12.26 0zM606.37 465.5 a6.13 6.13 0 1 0 12.26 0 a6.13 6.13 0 1 0 -12.26 0zM557.37 465.5 a6.13 6.13 0 1 0 12.26 0 a6.13 6.13 0 1 0 -12.26 0z" fill="black"></path><path d="M655.37 171.5 a6.13 6.13 0 1 0 12.26 0 a6.13 6.13 0 1 0 -12.26 0zM459.37 220.5 a6.13 6.13 0 1 0 12.26 0 a6.13 6.13 0 1 0 -12.26 0zM802.37 122.5 a6.13 6.13 0 1 0 12.26 0 a6.13 6.13 0 1 0 -12.26 0zM606.37 122.5 a6.13 6.13 0 1 0 12.26 0 a6.13 6.13 0 1 0 -12.26 0z" fill="black"></path></mask></defs></svg>