<svg xmlns="http://www.w3.org/2000/svg" version="1.1" xmlns:xlink="http://www.w3.org/1999/xlink" xmlns:svgjs="http://svgjs.dev/svgjs"  preserveAspectRatio="none" viewBox="0 0 1980 1080"><g mask="url(&quot;#SvgjsMask1111&quot;)" fill="none"><rect width="1980" height="1080" x="0" y="0" fill="rgba(255, 255, 255, 1)"></rect><g mask="url(&quot;#SvgjsMask1112&quot;)"><path d="M1237.5 214.5L1237.5 709.5L1105.5 841.5" stroke-width="5.5" stroke="rgba(218, 218, 218, 1)"></path><path d="M1229.25 214.5 a8.25 8.25 0 1 0 16.5 0 a8.25 8.25 0 1 0 -16.5 0zM1097.25 841.5 a8.25 8.25 0 1 0 16.5 0 a8.25 8.25 0 1 0 -16.5 0z" fill="rgba(218, 218, 218, 1)"></path><path d="M313.5 841.5L313.5 1072.5" stroke-width="5.5" stroke="rgba(218, 218, 218, 1)"></path><path d="M305.25 841.5 a8.25 8.25 0 1 0 16.5 0 a8.25 8.25 0 1 0 -16.5 0zM305.25 1072.5 a8.25 8.25 0 1 0 16.5 0 a8.25 8.25 0 1 0 -16.5 0z" fill="rgba(218, 218, 218, 1)"></path><path d="M1303.5 742.5L1303.5 709.5L1270.5 676.5L1270.5 115.5" stroke-width="5.5" stroke="rgba(218, 218, 218, 1)"></path><path d="M1295.25 742.5 a8.25 8.25 0 1 0 16.5 0 a8.25 8.25 0 1 0 -16.5 0zM1262.25 115.5 a8.25 8.25 0 1 0 16.5 0 a8.25 8.25 0 1 0 -16.5 0z" fill="rgba(218, 218, 218, 1)"></path><path d="M1864.5 214.5L1963.5 115.5L1963.5 16.5" stroke-width="5.5" stroke="rgba(218, 218, 218, 1)"></path><path d="M1856.25 214.5 a8.25 8.25 0 1 0 16.5 0 a8.25 8.25 0 1 0 -16.5 0zM1955.25 16.5 a8.25 8.25 0 1 0 16.5 0 a8.25 8.25 0 1 0 -16.5 0z" fill="rgba(218, 218, 218, 1)"></path><path d="M1864.5 874.5L1963.5 874.5" stroke-width="5.5" stroke="rgba(218, 218, 218, 1)"></path><path d="M1856.25 874.5 a8.25 8.25 0 1 0 16.5 0 a8.25 8.25 0 1 0 -16.5 0zM1955.25 874.5 a8.25 8.25 0 1 0 16.5 0 a8.25 8.25 0 1 0 -16.5 0z" fill="rgba(218, 218, 218, 1)"></path><path d="M1600.5 280.5L1699.5 181.5L1699.5 115.5L1798.5 16.5L1930.5 16.5" stroke-width="5.5" stroke="rgba(218, 218, 218, 1)"></path><path d="M1592.25 280.5 a8.25 8.25 0 1 0 16.5 0 a8.25 8.25 0 1 0 -16.5 0zM1922.25 16.5 a8.25 8.25 0 1 0 16.5 0 a8.25 8.25 0 1 0 -16.5 0z" fill="rgba(218, 218, 218, 1)"></path><path d="M709.5 1039.5L907.5 841.5L907.5 775.5L1006.5 676.5L1006.5 412.5" stroke-width="5.5" stroke="rgba(218, 218, 218, 1)"></path><path d="M701.25 1039.5 a8.25 8.25 0 1 0 16.5 0 a8.25 8.25 0 1 0 -16.5 0zM998.25 412.5 a8.25 8.25 0 1 0 16.5 0 a8.25 8.25 0 1 0 -16.5 0z" fill="rgba(218, 218, 218, 1)"></path><path d="M1039.5 808.5L1039.5 610.5L1204.5 445.5L1204.5 181.5" stroke-width="5.5" stroke="rgba(218, 218, 218, 1)"></path><path d="M1031.25 808.5 a8.25 8.25 0 1 0 16.5 0 a8.25 8.25 0 1 0 -16.5 0zM1196.25 181.5 a8.25 8.25 0 1 0 16.5 0 a8.25 8.25 0 1 0 -16.5 0z" fill="rgba(218, 218, 218, 1)"></path><path d="M1567.5 544.5L1963.5 544.5" stroke-width="5.5" stroke="rgba(218, 218, 218, 1)"></path><path d="M1559.25 544.5 a8.25 8.25 0 1 0 16.5 0 a8.25 8.25 0 1 0 -16.5 0zM1955.25 544.5 a8.25 8.25 0 1 0 16.5 0 a8.25 8.25 0 1 0 -16.5 0z" fill="rgba(218, 218, 218, 1)"></path><path d="M1138.5 841.5L1204.5 775.5L1336.5 775.5L1402.5 709.5L1567.5 709.5L1699.5 577.5L1765.5 577.5" stroke-width="5.5" stroke="rgba(218, 218, 218, 1)"></path><path d="M1130.25 841.5 a8.25 8.25 0 1 0 16.5 0 a8.25 8.25 0 1 0 -16.5 0zM1757.25 577.5 a8.25 8.25 0 1 0 16.5 0 a8.25 8.25 0 1 0 -16.5 0z" fill="rgba(218, 218, 218, 1)"></path><path d="M1105.5 412.5L1171.5 412.5" stroke-width="5.5" stroke="rgba(218, 218, 218, 1)"></path><path d="M1097.25 412.5 a8.25 8.25 0 1 0 16.5 0 a8.25 8.25 0 1 0 -16.5 0zM1163.25 412.5 a8.25 8.25 0 1 0 16.5 0 a8.25 8.25 0 1 0 -16.5 0z" fill="rgba(218, 218, 218, 1)"></path><path d="M1369.5 511.5L1303.5 511.5" stroke-width="5.5" stroke="rgba(218, 218, 218, 1)"></path><path d="M1361.25 511.5 a8.25 8.25 0 1 0 16.5 0 a8.25 8.25 0 1 0 -16.5 0zM1295.25 511.5 a8.25 8.25 0 1 0 16.5 0 a8.25 8.25 0 1 0 -16.5 0z" fill="rgba(218, 218, 218, 1)"></path><path d="M1468.5 775.5L1468.5 940.5L1336.5 1072.5L1204.5 1072.5L1006.5 874.5" stroke-width="5.5" stroke="rgba(218, 218, 218, 1)"></path><path d="M1460.25 775.5 a8.25 8.25 0 1 0 16.5 0 a8.25 8.25 0 1 0 -16.5 0zM998.25 874.5 a8.25 8.25 0 1 0 16.5 0 a8.25 8.25 0 1 0 -16.5 0z" fill="rgba(218, 218, 218, 1)"></path><path d="M643.5 742.5L643.5 808.5L379.5 1072.5L346.5 1072.5" stroke-width="5.5" stroke="rgba(218, 218, 218, 1)"></path><path d="M635.25 742.5 a8.25 8.25 0 1 0 16.5 0 a8.25 8.25 0 1 0 -16.5 0zM338.25 1072.5 a8.25 8.25 0 1 0 16.5 0 a8.25 8.25 0 1 0 -16.5 0z" fill="rgba(218, 218, 218, 1)"></path><path d="M280.5 577.5L280.5 1039.5L247.5 1072.5L148.5 1072.5L115.5 1039.5" stroke-width="5.5" stroke="rgba(218, 218, 218, 1)"></path><path d="M272.25 577.5 a8.25 8.25 0 1 0 16.5 0 a8.25 8.25 0 1 0 -16.5 0zM107.25 1039.5 a8.25 8.25 0 1 0 16.5 0 a8.25 8.25 0 1 0 -16.5 0z" fill="rgba(218, 218, 218, 1)"></path><path d="M1402.5 874.5L1402.5 742.5" stroke-width="5.5" stroke="rgba(218, 218, 218, 1)"></path><path d="M1394.25 874.5 a8.25 8.25 0 1 0 16.5 0 a8.25 8.25 0 1 0 -16.5 0zM1394.25 742.5 a8.25 8.25 0 1 0 16.5 0 a8.25 8.25 0 1 0 -16.5 0z" fill="rgba(218, 218, 218, 1)"></path><path d="M478.5 544.5L412.5 478.5L247.5 478.5L16.5 247.5L16.5 82.5" stroke-width="5.5" stroke="rgba(218, 218, 218, 1)"></path><path d="M470.25 544.5 a8.25 8.25 0 1 0 16.5 0 a8.25 8.25 0 1 0 -16.5 0zM8.25 82.5 a8.25 8.25 0 1 0 16.5 0 a8.25 8.25 0 1 0 -16.5 0z" fill="rgba(218, 218, 218, 1)"></path><path d="M115.5 313.5L412.5 16.5L742.5 16.5" stroke-width="5.5" stroke="rgba(218, 218, 218, 1)"></path><path d="M107.25 313.5 a8.25 8.25 0 1 0 16.5 0 a8.25 8.25 0 1 0 -16.5 0zM734.25 16.5 a8.25 8.25 0 1 0 16.5 0 a8.25 8.25 0 1 0 -16.5 0z" fill="rgba(218, 218, 218, 1)"></path><path d="M379.5 742.5L379.5 1039.5" stroke-width="5.5" stroke="rgba(218, 218, 218, 1)"></path><path d="M371.25 742.5 a8.25 8.25 0 1 0 16.5 0 a8.25 8.25 0 1 0 -16.5 0zM371.25 1039.5 a8.25 8.25 0 1 0 16.5 0 a8.25 8.25 0 1 0 -16.5 0z" fill="rgba(218, 218, 218, 1)"></path><path d="M544.5 478.5L445.5 379.5L181.5 379.5L148.5 346.5L148.5 313.5L181.5 280.5L214.5 280.5L346.5 148.5" stroke-width="5.5" stroke="rgba(218, 218, 218, 1)"></path><path d="M536.25 478.5 a8.25 8.25 0 1 0 16.5 0 a8.25 8.25 0 1 0 -16.5 0zM338.25 148.5 a8.25 8.25 0 1 0 16.5 0 a8.25 8.25 0 1 0 -16.5 0z" fill="rgba(218, 218, 218, 1)"></path><path d="M1303.5 1006.5L1171.5 874.5L1171.5 841.5L1204.5 808.5L1369.5 808.5" stroke-width="5.5" stroke="rgba(218, 218, 218, 1)"></path><path d="M1295.25 1006.5 a8.25 8.25 0 1 0 16.5 0 a8.25 8.25 0 1 0 -16.5 0zM1361.25 808.5 a8.25 8.25 0 1 0 16.5 0 a8.25 8.25 0 1 0 -16.5 0z" fill="rgba(218, 218, 218, 1)"></path><path d="M1435.5 346.5L1435.5 445.5L1402.5 478.5L1303.5 478.5" stroke-width="5.5" stroke="rgba(218, 218, 218, 1)"></path><path d="M1427.25 346.5 a8.25 8.25 0 1 0 16.5 0 a8.25 8.25 0 1 0 -16.5 0zM1295.25 478.5 a8.25 8.25 0 1 0 16.5 0 a8.25 8.25 0 1 0 -16.5 0z" fill="rgba(218, 218, 218, 1)"></path><path d="M1633.5 775.5L1501.5 775.5L1468.5 742.5L1435.5 742.5" stroke-width="5.5" stroke="rgba(218, 218, 218, 1)"></path><path d="M1625.25 775.5 a8.25 8.25 0 1 0 16.5 0 a8.25 8.25 0 1 0 -16.5 0zM1427.25 742.5 a8.25 8.25 0 1 0 16.5 0 a8.25 8.25 0 1 0 -16.5 0z" fill="rgba(218, 218, 218, 1)"></path><path d="M1072.5 379.5L1039.5 412.5L1039.5 577.5" stroke-width="5.5" stroke="rgba(218, 218, 218, 1)"></path><path d="M1064.25 379.5 a8.25 8.25 0 1 0 16.5 0 a8.25 8.25 0 1 0 -16.5 0zM1031.25 577.5 a8.25 8.25 0 1 0 16.5 0 a8.25 8.25 0 1 0 -16.5 0z" fill="rgba(218, 218, 218, 1)"></path><path d="M643.5 610.5L643.5 313.5L412.5 82.5L412.5 49.5" stroke-width="5.5" stroke="rgba(218, 218, 218, 1)"></path><path d="M635.25 610.5 a8.25 8.25 0 1 0 16.5 0 a8.25 8.25 0 1 0 -16.5 0zM404.25 49.5 a8.25 8.25 0 1 0 16.5 0 a8.25 8.25 0 1 0 -16.5 0z" fill="rgba(218, 218, 218, 1)"></path><path d="M1303.5 973.5L1336.5 1006.5L1369.5 1006.5L1435.5 940.5L1435.5 775.5" stroke-width="5.5" stroke="rgba(218, 218, 218, 1)"></path><path d="M1295.25 973.5 a8.25 8.25 0 1 0 16.5 0 a8.25 8.25 0 1 0 -16.5 0zM1427.25 775.5 a8.25 8.25 0 1 0 16.5 0 a8.25 8.25 0 1 0 -16.5 0z" fill="rgba(218, 218, 218, 1)"></path><path d="M478.5 280.5L412.5 346.5L181.5 346.5" stroke-width="5.5" stroke="rgba(218, 218, 218, 1)"></path><path d="M470.25 280.5 a8.25 8.25 0 1 0 16.5 0 a8.25 8.25 0 1 0 -16.5 0zM173.25 346.5 a8.25 8.25 0 1 0 16.5 0 a8.25 8.25 0 1 0 -16.5 0z" fill="rgba(218, 218, 218, 1)"></path><path d="M1633.5 709.5L1963.5 1039.5L1963.5 1072.5" stroke-width="5.5" stroke="rgba(218, 218, 218, 1)"></path><path d="M1625.25 709.5 a8.25 8.25 0 1 0 16.5 0 a8.25 8.25 0 1 0 -16.5 0zM1955.25 1072.5 a8.25 8.25 0 1 0 16.5 0 a8.25 8.25 0 1 0 -16.5 0z" fill="rgba(218, 218, 218, 1)"></path><path d="M1501.5 16.5L1501.5 511.5L1369.5 643.5" stroke-width="5.5" stroke="rgba(218, 218, 218, 1)"></path><path d="M1493.25 16.5 a8.25 8.25 0 1 0 16.5 0 a8.25 8.25 0 1 0 -16.5 0zM1361.25 643.5 a8.25 8.25 0 1 0 16.5 0 a8.25 8.25 0 1 0 -16.5 0z" fill="rgba(218, 218, 218, 1)"></path><path d="M181.5 643.5L16.5 478.5L16.5 280.5" stroke-width="5.5" stroke="rgba(218, 218, 218, 1)"></path><path d="M173.25 643.5 a8.25 8.25 0 1 0 16.5 0 a8.25 8.25 0 1 0 -16.5 0zM8.25 280.5 a8.25 8.25 0 1 0 16.5 0 a8.25 8.25 0 1 0 -16.5 0z" fill="rgba(218, 218, 218, 1)"></path><path d="M1732.5 313.5L1930.5 115.5L1930.5 49.5" stroke-width="5.5" stroke="rgba(218, 218, 218, 1)"></path><path d="M1724.25 313.5 a8.25 8.25 0 1 0 16.5 0 a8.25 8.25 0 1 0 -16.5 0zM1922.25 49.5 a8.25 8.25 0 1 0 16.5 0 a8.25 8.25 0 1 0 -16.5 0z" fill="rgba(218, 218, 218, 1)"></path><path d="M1468.5 973.5L1666.5 775.5" stroke-width="5.5" stroke="rgba(218, 218, 218, 1)"></path><path d="M1460.25 973.5 a8.25 8.25 0 1 0 16.5 0 a8.25 8.25 0 1 0 -16.5 0zM1658.25 775.5 a8.25 8.25 0 1 0 16.5 0 a8.25 8.25 0 1 0 -16.5 0z" fill="rgba(218, 218, 218, 1)"></path><path d="M1897.5 412.5L1897.5 280.5L1864.5 247.5L1831.5 247.5L1699.5 379.5L1699.5 511.5" stroke-width="5.5" stroke="rgba(218, 218, 218, 1)"></path><path d="M1889.25 412.5 a8.25 8.25 0 1 0 16.5 0 a8.25 8.25 0 1 0 -16.5 0zM1691.25 511.5 a8.25 8.25 0 1 0 16.5 0 a8.25 8.25 0 1 0 -16.5 0z" fill="rgba(218, 218, 218, 1)"></path><path d="M1633.5 478.5L1633.5 445.5L1567.5 379.5L1534.5 379.5" stroke-width="5.5" stroke="rgba(218, 218, 218, 1)"></path><path d="M1625.25 478.5 a8.25 8.25 0 1 0 16.5 0 a8.25 8.25 0 1 0 -16.5 0zM1526.25 379.5 a8.25 8.25 0 1 0 16.5 0 a8.25 8.25 0 1 0 -16.5 0z" fill="rgba(218, 218, 218, 1)"></path><path d="M1633.5 874.5L1765.5 874.5L1930.5 1039.5L1930.5 1072.5" stroke-width="5.5" stroke="rgba(218, 218, 218, 1)"></path><path d="M1625.25 874.5 a8.25 8.25 0 1 0 16.5 0 a8.25 8.25 0 1 0 -16.5 0zM1922.25 1072.5 a8.25 8.25 0 1 0 16.5 0 a8.25 8.25 0 1 0 -16.5 0z" fill="rgba(218, 218, 218, 1)"></path><path d="M742.5 841.5L511.5 1072.5L478.5 1072.5L445.5 1039.5" stroke-width="5.5" stroke="rgba(218, 218, 218, 1)"></path><path d="M734.25 841.5 a8.25 8.25 0 1 0 16.5 0 a8.25 8.25 0 1 0 -16.5 0zM437.25 1039.5 a8.25 8.25 0 1 0 16.5 0 a8.25 8.25 0 1 0 -16.5 0z" fill="rgba(218, 218, 218, 1)"></path><path d="M1072.5 1006.5L940.5 874.5L940.5 775.5L1006.5 709.5" stroke-width="5.5" stroke="rgba(218, 218, 218, 1)"></path><path d="M1064.25 1006.5 a8.25 8.25 0 1 0 16.5 0 a8.25 8.25 0 1 0 -16.5 0zM998.25 709.5 a8.25 8.25 0 1 0 16.5 0 a8.25 8.25 0 1 0 -16.5 0z" fill="rgba(218, 218, 218, 1)"></path><path d="M115.5 973.5L115.5 940.5L247.5 808.5L247.5 610.5L49.5 412.5L49.5 346.5" stroke-width="5.5" stroke="rgba(218, 218, 218, 1)"></path><path d="M107.25 973.5 a8.25 8.25 0 1 0 16.5 0 a8.25 8.25 0 1 0 -16.5 0zM41.25 346.5 a8.25 8.25 0 1 0 16.5 0 a8.25 8.25 0 1 0 -16.5 0z" fill="rgba(218, 218, 218, 1)"></path><path d="M1699.5 1039.5L1732.5 1072.5L1897.5 1072.5" stroke-width="5.5" stroke="rgba(218, 218, 218, 1)"></path><path d="M1691.25 1039.5 a8.25 8.25 0 1 0 16.5 0 a8.25 8.25 0 1 0 -16.5 0zM1889.25 1072.5 a8.25 8.25 0 1 0 16.5 0 a8.25 8.25 0 1 0 -16.5 0z" fill="rgba(218, 218, 218, 1)"></path><path d="M148.5 445.5L148.5 478.5L247.5 577.5" stroke-width="5.5" stroke="rgba(218, 218, 218, 1)"></path><path d="M140.25 445.5 a8.25 8.25 0 1 0 16.5 0 a8.25 8.25 0 1 0 -16.5 0zM239.25 577.5 a8.25 8.25 0 1 0 16.5 0 a8.25 8.25 0 1 0 -16.5 0z" fill="rgba(218, 218, 218, 1)"></path><path d="M49.5 49.5L49.5 247.5L82.5 280.5L115.5 280.5L379.5 16.5" stroke-width="5.5" stroke="rgba(218, 218, 218, 1)"></path><path d="M41.25 49.5 a8.25 8.25 0 1 0 16.5 0 a8.25 8.25 0 1 0 -16.5 0zM371.25 16.5 a8.25 8.25 0 1 0 16.5 0 a8.25 8.25 0 1 0 -16.5 0z" fill="rgba(218, 218, 218, 1)"></path><path d="M610.5 82.5L1237.5 82.5" stroke-width="5.5" stroke="rgba(218, 218, 218, 1)"></path><path d="M602.25 82.5 a8.25 8.25 0 1 0 16.5 0 a8.25 8.25 0 1 0 -16.5 0zM1229.25 82.5 a8.25 8.25 0 1 0 16.5 0 a8.25 8.25 0 1 0 -16.5 0z" fill="rgba(218, 218, 218, 1)"></path><path d="M841.5 940.5L973.5 1072.5L1171.5 1072.5" stroke-width="5.5" stroke="rgba(218, 218, 218, 1)"></path><path d="M833.25 940.5 a8.25 8.25 0 1 0 16.5 0 a8.25 8.25 0 1 0 -16.5 0zM1163.25 1072.5 a8.25 8.25 0 1 0 16.5 0 a8.25 8.25 0 1 0 -16.5 0z" fill="rgba(218, 218, 218, 1)"></path><path d="M1600.5 214.5L1666.5 148.5L1666.5 16.5" stroke-width="5.5" stroke="rgba(218, 218, 218, 1)"></path><path d="M1592.25 214.5 a8.25 8.25 0 1 0 16.5 0 a8.25 8.25 0 1 0 -16.5 0zM1658.25 16.5 a8.25 8.25 0 1 0 16.5 0 a8.25 8.25 0 1 0 -16.5 0z" fill="rgba(218, 218, 218, 1)"></path><path d="M841.5 280.5L841.5 115.5" stroke-width="5.5" stroke="rgba(218, 218, 218, 1)"></path><path d="M833.25 280.5 a8.25 8.25 0 1 0 16.5 0 a8.25 8.25 0 1 0 -16.5 0zM833.25 115.5 a8.25 8.25 0 1 0 16.5 0 a8.25 8.25 0 1 0 -16.5 0z" fill="rgba(218, 218, 218, 1)"></path><path d="M1303.5 643.5L1402.5 544.5L1402.5 511.5L1468.5 445.5L1468.5 181.5L1303.5 16.5" stroke-width="5.5" stroke="rgba(218, 218, 218, 1)"></path><path d="M1295.25 643.5 a8.25 8.25 0 1 0 16.5 0 a8.25 8.25 0 1 0 -16.5 0zM1295.25 16.5 a8.25 8.25 0 1 0 16.5 0 a8.25 8.25 0 1 0 -16.5 0z" fill="rgba(218, 218, 218, 1)"></path><path d="M1765.5 973.5L1699.5 907.5L1567.5 907.5L1402.5 1072.5L1369.5 1072.5" stroke-width="5.5" stroke="rgba(218, 218, 218, 1)"></path><path d="M1757.25 973.5 a8.25 8.25 0 1 0 16.5 0 a8.25 8.25 0 1 0 -16.5 0zM1361.25 1072.5 a8.25 8.25 0 1 0 16.5 0 a8.25 8.25 0 1 0 -16.5 0z" fill="rgba(218, 218, 218, 1)"></path><path d="M1963.5 610.5L1963.5 841.5" stroke-width="5.5" stroke="rgba(218, 218, 218, 1)"></path><path d="M1955.25 610.5 a8.25 8.25 0 1 0 16.5 0 a8.25 8.25 0 1 0 -16.5 0zM1955.25 841.5 a8.25 8.25 0 1 0 16.5 0 a8.25 8.25 0 1 0 -16.5 0z" fill="rgba(218, 218, 218, 1)"></path><path d="M1633.5 412.5L1534.5 313.5L1534.5 115.5L1633.5 16.5" stroke-width="5.5" stroke="rgba(218, 218, 218, 1)"></path><path d="M1625.25 412.5 a8.25 8.25 0 1 0 16.5 0 a8.25 8.25 0 1 0 -16.5 0zM1625.25 16.5 a8.25 8.25 0 1 0 16.5 0 a8.25 8.25 0 1 0 -16.5 0z" fill="rgba(218, 218, 218, 1)"></path><path d="M1204.5 643.5L1072.5 643.5" stroke-width="5.5" stroke="rgba(218, 218, 218, 1)"></path><path d="M1196.25 643.5 a8.25 8.25 0 1 0 16.5 0 a8.25 8.25 0 1 0 -16.5 0zM1064.25 643.5 a8.25 8.25 0 1 0 16.5 0 a8.25 8.25 0 1 0 -16.5 0z" fill="rgba(218, 218, 218, 1)"></path><path d="M577.5 940.5L577.5 973.5L511.5 1039.5L478.5 1039.5" stroke-width="5.5" stroke="rgba(218, 218, 218, 1)"></path><path d="M569.25 940.5 a8.25 8.25 0 1 0 16.5 0 a8.25 8.25 0 1 0 -16.5 0zM470.25 1039.5 a8.25 8.25 0 1 0 16.5 0 a8.25 8.25 0 1 0 -16.5 0z" fill="rgba(218, 218, 218, 1)"></path><path d="M1897.5 82.5L1765.5 82.5L1732.5 115.5L1732.5 148.5L1798.5 214.5" stroke-width="5.5" stroke="rgba(218, 218, 218, 1)"></path><path d="M1889.25 82.5 a8.25 8.25 0 1 0 16.5 0 a8.25 8.25 0 1 0 -16.5 0zM1790.25 214.5 a8.25 8.25 0 1 0 16.5 0 a8.25 8.25 0 1 0 -16.5 0z" fill="rgba(218, 218, 218, 1)"></path><path d="M49.5 973.5L82.5 973.5L148.5 1039.5L247.5 1039.5" stroke-width="5.5" stroke="rgba(218, 218, 218, 1)"></path><path d="M41.25 973.5 a8.25 8.25 0 1 0 16.5 0 a8.25 8.25 0 1 0 -16.5 0zM239.25 1039.5 a8.25 8.25 0 1 0 16.5 0 a8.25 8.25 0 1 0 -16.5 0z" fill="rgba(218, 218, 218, 1)"></path><path d="M16.5 775.5L16.5 643.5L82.5 577.5" stroke-width="5.5" stroke="rgba(218, 218, 218, 1)"></path><path d="M8.25 775.5 a8.25 8.25 0 1 0 16.5 0 a8.25 8.25 0 1 0 -16.5 0zM74.25 577.5 a8.25 8.25 0 1 0 16.5 0 a8.25 8.25 0 1 0 -16.5 0z" fill="rgba(218, 218, 218, 1)"></path><path d="M412.5 940.5L412.5 874.5L676.5 610.5L742.5 610.5L874.5 478.5L874.5 379.5" stroke-width="5.5" stroke="rgba(218, 218, 218, 1)"></path><path d="M404.25 940.5 a8.25 8.25 0 1 0 16.5 0 a8.25 8.25 0 1 0 -16.5 0zM866.25 379.5 a8.25 8.25 0 1 0 16.5 0 a8.25 8.25 0 1 0 -16.5 0z" fill="rgba(218, 218, 218, 1)"></path><path d="M511.5 676.5L313.5 676.5" stroke-width="5.5" stroke="rgba(218, 218, 218, 1)"></path><path d="M503.25 676.5 a8.25 8.25 0 1 0 16.5 0 a8.25 8.25 0 1 0 -16.5 0zM305.25 676.5 a8.25 8.25 0 1 0 16.5 0 a8.25 8.25 0 1 0 -16.5 0z" fill="rgba(218, 218, 218, 1)"></path><path d="M82.5 214.5L82.5 16.5" stroke-width="5.5" stroke="rgba(218, 218, 218, 1)"></path><path d="M74.25 214.5 a8.25 8.25 0 1 0 16.5 0 a8.25 8.25 0 1 0 -16.5 0zM74.25 16.5 a8.25 8.25 0 1 0 16.5 0 a8.25 8.25 0 1 0 -16.5 0z" fill="rgba(218, 218, 218, 1)"></path><path d="M940.5 478.5L907.5 445.5L907.5 115.5" stroke-width="5.5" stroke="rgba(218, 218, 218, 1)"></path><path d="M932.25 478.5 a8.25 8.25 0 1 0 16.5 0 a8.25 8.25 0 1 0 -16.5 0zM899.25 115.5 a8.25 8.25 0 1 0 16.5 0 a8.25 8.25 0 1 0 -16.5 0z" fill="rgba(218, 218, 218, 1)"></path><path d="M1402.5 247.5L1303.5 247.5" stroke-width="5.5" stroke="rgba(218, 218, 218, 1)"></path><path d="M1394.25 247.5 a8.25 8.25 0 1 0 16.5 0 a8.25 8.25 0 1 0 -16.5 0zM1295.25 247.5 a8.25 8.25 0 1 0 16.5 0 a8.25 8.25 0 1 0 -16.5 0z" fill="rgba(218, 218, 218, 1)"></path><path d="M1633.5 82.5L1633.5 148.5L1567.5 214.5L1567.5 313.5L1666.5 412.5L1666.5 511.5" stroke-width="5.5" stroke="rgba(218, 218, 218, 1)"></path><path d="M1625.25 82.5 a8.25 8.25 0 1 0 16.5 0 a8.25 8.25 0 1 0 -16.5 0zM1658.25 511.5 a8.25 8.25 0 1 0 16.5 0 a8.25 8.25 0 1 0 -16.5 0z" fill="rgba(218, 218, 218, 1)"></path><path d="M1369.5 907.5L1369.5 973.5" stroke-width="5.5" stroke="rgba(218, 218, 218, 1)"></path><path d="M1361.25 907.5 a8.25 8.25 0 1 0 16.5 0 a8.25 8.25 0 1 0 -16.5 0zM1361.25 973.5 a8.25 8.25 0 1 0 16.5 0 a8.25 8.25 0 1 0 -16.5 0z" fill="rgba(218, 218, 218, 1)"></path><path d="M1072.5 478.5L1072.5 544.5" stroke-width="5.5" stroke="rgba(218, 218, 218, 1)"></path><path d="M1064.25 478.5 a8.25 8.25 0 1 0 16.5 0 a8.25 8.25 0 1 0 -16.5 0zM1064.25 544.5 a8.25 8.25 0 1 0 16.5 0 a8.25 8.25 0 1 0 -16.5 0z" fill="rgba(218, 218, 218, 1)"></path><path d="M1105.5 247.5L1105.5 115.5" stroke-width="5.5" stroke="rgba(218, 218, 218, 1)"></path><path d="M1097.25 247.5 a8.25 8.25 0 1 0 16.5 0 a8.25 8.25 0 1 0 -16.5 0zM1097.25 115.5 a8.25 8.25 0 1 0 16.5 0 a8.25 8.25 0 1 0 -16.5 0z" fill="rgba(218, 218, 218, 1)"></path><path d="M544.5 379.5L544.5 247.5L379.5 82.5" stroke-width="5.5" stroke="rgba(218, 218, 218, 1)"></path><path d="M536.25 379.5 a8.25 8.25 0 1 0 16.5 0 a8.25 8.25 0 1 0 -16.5 0zM371.25 82.5 a8.25 8.25 0 1 0 16.5 0 a8.25 8.25 0 1 0 -16.5 0z" fill="rgba(218, 218, 218, 1)"></path><path d="M1336.5 280.5L1435.5 280.5" stroke-width="5.5" stroke="rgba(218, 218, 218, 1)"></path><path d="M1328.25 280.5 a8.25 8.25 0 1 0 16.5 0 a8.25 8.25 0 1 0 -16.5 0zM1427.25 280.5 a8.25 8.25 0 1 0 16.5 0 a8.25 8.25 0 1 0 -16.5 0z" fill="rgba(218, 218, 218, 1)"></path><path d="M1204.5 676.5L1039.5 841.5L973.5 841.5" stroke-width="5.5" stroke="rgba(218, 218, 218, 1)"></path><path d="M1196.25 676.5 a8.25 8.25 0 1 0 16.5 0 a8.25 8.25 0 1 0 -16.5 0zM965.25 841.5 a8.25 8.25 0 1 0 16.5 0 a8.25 8.25 0 1 0 -16.5 0z" fill="rgba(218, 218, 218, 1)"></path><path d="M181.5 577.5L214.5 610.5L214.5 808.5L181.5 841.5L49.5 841.5L16.5 808.5" stroke-width="5.5" stroke="rgba(218, 218, 218, 1)"></path><path d="M173.25 577.5 a8.25 8.25 0 1 0 16.5 0 a8.25 8.25 0 1 0 -16.5 0zM8.25 808.5 a8.25 8.25 0 1 0 16.5 0 a8.25 8.25 0 1 0 -16.5 0z" fill="rgba(218, 218, 218, 1)"></path><path d="M676.5 280.5L808.5 412.5L808.5 511.5L742.5 577.5L676.5 577.5" stroke-width="5.5" stroke="rgba(218, 218, 218, 1)"></path><path d="M668.25 280.5 a8.25 8.25 0 1 0 16.5 0 a8.25 8.25 0 1 0 -16.5 0zM668.25 577.5 a8.25 8.25 0 1 0 16.5 0 a8.25 8.25 0 1 0 -16.5 0z" fill="rgba(218, 218, 218, 1)"></path><path d="M1369.5 346.5L1402.5 313.5L1435.5 313.5" stroke-width="5.5" stroke="rgba(218, 218, 218, 1)"></path><path d="M1361.25 346.5 a8.25 8.25 0 1 0 16.5 0 a8.25 8.25 0 1 0 -16.5 0zM1427.25 313.5 a8.25 8.25 0 1 0 16.5 0 a8.25 8.25 0 1 0 -16.5 0z" fill="rgba(218, 218, 218, 1)"></path><path d="M1534.5 544.5L1534.5 610.5L1501.5 643.5L1501.5 676.5" stroke-width="5.5" stroke="rgba(218, 218, 218, 1)"></path><path d="M1526.25 544.5 a8.25 8.25 0 1 0 16.5 0 a8.25 8.25 0 1 0 -16.5 0zM1493.25 676.5 a8.25 8.25 0 1 0 16.5 0 a8.25 8.25 0 1 0 -16.5 0z" fill="rgba(218, 218, 218, 1)"></path><path d="M1105.5 379.5L1171.5 379.5" stroke-width="5.5" stroke="rgba(218, 218, 218, 1)"></path><path d="M1097.25 379.5 a8.25 8.25 0 1 0 16.5 0 a8.25 8.25 0 1 0 -16.5 0zM1163.25 379.5 a8.25 8.25 0 1 0 16.5 0 a8.25 8.25 0 1 0 -16.5 0z" fill="rgba(218, 218, 218, 1)"></path><path d="M1039.5 115.5L940.5 214.5L940.5 445.5L973.5 478.5L973.5 676.5L907.5 742.5" stroke-width="5.5" stroke="rgba(218, 218, 218, 1)"></path><path d="M1031.25 115.5 a8.25 8.25 0 1 0 16.5 0 a8.25 8.25 0 1 0 -16.5 0zM899.25 742.5 a8.25 8.25 0 1 0 16.5 0 a8.25 8.25 0 1 0 -16.5 0z" fill="rgba(218, 218, 218, 1)"></path><path d="M445.5 973.5L610.5 808.5L610.5 709.5L643.5 676.5L709.5 676.5L907.5 478.5" stroke-width="5.5" stroke="rgba(218, 218, 218, 1)"></path><path d="M437.25 973.5 a8.25 8.25 0 1 0 16.5 0 a8.25 8.25 0 1 0 -16.5 0zM899.25 478.5 a8.25 8.25 0 1 0 16.5 0 a8.25 8.25 0 1 0 -16.5 0z" fill="rgba(218, 218, 218, 1)"></path><path d="M148.5 874.5L82.5 940.5L49.5 940.5L16.5 907.5L16.5 841.5" stroke-width="5.5" stroke="rgba(218, 218, 218, 1)"></path><path d="M140.25 874.5 a8.25 8.25 0 1 0 16.5 0 a8.25 8.25 0 1 0 -16.5 0zM8.25 841.5 a8.25 8.25 0 1 0 16.5 0 a8.25 8.25 0 1 0 -16.5 0z" fill="rgba(218, 218, 218, 1)"></path><path d="M775.5 808.5L874.5 808.5" stroke-width="5.5" stroke="rgba(218, 218, 218, 1)"></path><path d="M767.25 808.5 a8.25 8.25 0 1 0 16.5 0 a8.25 8.25 0 1 0 -16.5 0zM866.25 808.5 a8.25 8.25 0 1 0 16.5 0 a8.25 8.25 0 1 0 -16.5 0z" fill="rgba(218, 218, 218, 1)"></path><path d="M511.5 742.5L412.5 841.5" stroke-width="5.5" stroke="rgba(218, 218, 218, 1)"></path><path d="M503.25 742.5 a8.25 8.25 0 1 0 16.5 0 a8.25 8.25 0 1 0 -16.5 0zM404.25 841.5 a8.25 8.25 0 1 0 16.5 0 a8.25 8.25 0 1 0 -16.5 0z" fill="rgba(218, 218, 218, 1)"></path><path d="M148.5 577.5L148.5 544.5L49.5 445.5" stroke-width="5.5" stroke="rgba(218, 218, 218, 1)"></path><path d="M140.25 577.5 a8.25 8.25 0 1 0 16.5 0 a8.25 8.25 0 1 0 -16.5 0zM41.25 445.5 a8.25 8.25 0 1 0 16.5 0 a8.25 8.25 0 1 0 -16.5 0z" fill="rgba(218, 218, 218, 1)"></path><path d="M907.5 577.5L841.5 577.5L676.5 742.5L676.5 874.5L610.5 940.5" stroke-width="5.5" stroke="rgba(218, 218, 218, 1)"></path><path d="M899.25 577.5 a8.25 8.25 0 1 0 16.5 0 a8.25 8.25 0 1 0 -16.5 0zM602.25 940.5 a8.25 8.25 0 1 0 16.5 0 a8.25 8.25 0 1 0 -16.5 0z" fill="rgba(218, 218, 218, 1)"></path><path d="M247.5 1006.5L148.5 1006.5" stroke-width="5.5" stroke="rgba(218, 218, 218, 1)"></path><path d="M239.25 1006.5 a8.25 8.25 0 1 0 16.5 0 a8.25 8.25 0 1 0 -16.5 0zM140.25 1006.5 a8.25 8.25 0 1 0 16.5 0 a8.25 8.25 0 1 0 -16.5 0z" fill="rgba(218, 218, 218, 1)"></path><path d="M610.5 577.5L379.5 577.5L313.5 511.5L214.5 511.5L181.5 478.5L181.5 445.5" stroke-width="5.5" stroke="rgba(218, 218, 218, 1)"></path><path d="M602.25 577.5 a8.25 8.25 0 1 0 16.5 0 a8.25 8.25 0 1 0 -16.5 0zM173.25 445.5 a8.25 8.25 0 1 0 16.5 0 a8.25 8.25 0 1 0 -16.5 0z" fill="rgba(218, 218, 218, 1)"></path><path d="M742.5 1072.5L940.5 1072.5" stroke-width="5.5" stroke="rgba(218, 218, 218, 1)"></path><path d="M734.25 1072.5 a8.25 8.25 0 1 0 16.5 0 a8.25 8.25 0 1 0 -16.5 0zM932.25 1072.5 a8.25 8.25 0 1 0 16.5 0 a8.25 8.25 0 1 0 -16.5 0z" fill="rgba(218, 218, 218, 1)"></path><path d="M1864.5 115.5L1765.5 115.5" stroke-width="5.5" stroke="rgba(218, 218, 218, 1)"></path><path d="M1856.25 115.5 a8.25 8.25 0 1 0 16.5 0 a8.25 8.25 0 1 0 -16.5 0zM1757.25 115.5 a8.25 8.25 0 1 0 16.5 0 a8.25 8.25 0 1 0 -16.5 0z" fill="rgba(218, 218, 218, 1)"></path><path d="M1006.5 742.5L973.5 775.5L973.5 808.5" stroke-width="5.5" stroke="rgba(218, 218, 218, 1)"></path><path d="M998.25 742.5 a8.25 8.25 0 1 0 16.5 0 a8.25 8.25 0 1 0 -16.5 0zM965.25 808.5 a8.25 8.25 0 1 0 16.5 0 a8.25 8.25 0 1 0 -16.5 0z" fill="rgba(218, 218, 218, 1)"></path><path d="M610.5 214.5L577.5 214.5L445.5 82.5L445.5 49.5" stroke-width="5.5" stroke="rgba(218, 218, 218, 1)"></path><path d="M602.25 214.5 a8.25 8.25 0 1 0 16.5 0 a8.25 8.25 0 1 0 -16.5 0zM437.25 49.5 a8.25 8.25 0 1 0 16.5 0 a8.25 8.25 0 1 0 -16.5 0z" fill="rgba(218, 218, 218, 1)"></path><path d="M1369.5 379.5L1303.5 445.5" stroke-width="5.5" stroke="rgba(218, 218, 218, 1)"></path><path d="M1361.25 379.5 a8.25 8.25 0 1 0 16.5 0 a8.25 8.25 0 1 0 -16.5 0zM1295.25 445.5 a8.25 8.25 0 1 0 16.5 0 a8.25 8.25 0 1 0 -16.5 0z" fill="rgba(218, 218, 218, 1)"></path><path d="M775.5 841.5L544.5 1072.5" stroke-width="5.5" stroke="rgba(218, 218, 218, 1)"></path><path d="M767.25 841.5 a8.25 8.25 0 1 0 16.5 0 a8.25 8.25 0 1 0 -16.5 0zM536.25 1072.5 a8.25 8.25 0 1 0 16.5 0 a8.25 8.25 0 1 0 -16.5 0z" fill="rgba(218, 218, 218, 1)"></path><path d="M676.5 511.5L676.5 313.5" stroke-width="5.5" stroke="rgba(218, 218, 218, 1)"></path><path d="M668.25 511.5 a8.25 8.25 0 1 0 16.5 0 a8.25 8.25 0 1 0 -16.5 0zM668.25 313.5 a8.25 8.25 0 1 0 16.5 0 a8.25 8.25 0 1 0 -16.5 0z" fill="rgba(218, 218, 218, 1)"></path><path d="M841.5 1006.5L874.5 1006.5L907.5 1039.5" stroke-width="5.5" stroke="rgba(218, 218, 218, 1)"></path><path d="M833.25 1006.5 a8.25 8.25 0 1 0 16.5 0 a8.25 8.25 0 1 0 -16.5 0zM899.25 1039.5 a8.25 8.25 0 1 0 16.5 0 a8.25 8.25 0 1 0 -16.5 0z" fill="rgba(218, 218, 218, 1)"></path><path d="M1039.5 1006.5L907.5 874.5" stroke-width="5.5" stroke="rgba(218, 218, 218, 1)"></path><path d="M1031.25 1006.5 a8.25 8.25 0 1 0 16.5 0 a8.25 8.25 0 1 0 -16.5 0zM899.25 874.5 a8.25 8.25 0 1 0 16.5 0 a8.25 8.25 0 1 0 -16.5 0z" fill="rgba(218, 218, 218, 1)"></path><path d="M247.5 313.5L247.5 280.5L379.5 148.5L379.5 115.5" stroke-width="5.5" stroke="rgba(218, 218, 218, 1)"></path><path d="M239.25 313.5 a8.25 8.25 0 1 0 16.5 0 a8.25 8.25 0 1 0 -16.5 0zM371.25 115.5 a8.25 8.25 0 1 0 16.5 0 a8.25 8.25 0 1 0 -16.5 0z" fill="rgba(218, 218, 218, 1)"></path><path d="M610.5 445.5L610.5 544.5" stroke-width="5.5" stroke="rgba(218, 218, 218, 1)"></path><path d="M602.25 445.5 a8.25 8.25 0 1 0 16.5 0 a8.25 8.25 0 1 0 -16.5 0zM602.25 544.5 a8.25 8.25 0 1 0 16.5 0 a8.25 8.25 0 1 0 -16.5 0z" fill="rgba(218, 218, 218, 1)"></path><path d="M115.5 214.5L115.5 16.5" stroke-width="5.5" stroke="rgba(218, 218, 218, 1)"></path><path d="M107.25 214.5 a8.25 8.25 0 1 0 16.5 0 a8.25 8.25 0 1 0 -16.5 0zM107.25 16.5 a8.25 8.25 0 1 0 16.5 0 a8.25 8.25 0 1 0 -16.5 0z" fill="rgba(218, 218, 218, 1)"></path><path d="M610.5 148.5L577.5 115.5L511.5 115.5L478.5 82.5L478.5 49.5" stroke-width="5.5" stroke="rgba(218, 218, 218, 1)"></path><path d="M602.25 148.5 a8.25 8.25 0 1 0 16.5 0 a8.25 8.25 0 1 0 -16.5 0zM470.25 49.5 a8.25 8.25 0 1 0 16.5 0 a8.25 8.25 0 1 0 -16.5 0z" fill="rgba(218, 218, 218, 1)"></path><path d="M181.5 907.5L181.5 940.5L148.5 973.5" stroke-width="5.5" stroke="rgba(218, 218, 218, 1)"></path><path d="M173.25 907.5 a8.25 8.25 0 1 0 16.5 0 a8.25 8.25 0 1 0 -16.5 0zM140.25 973.5 a8.25 8.25 0 1 0 16.5 0 a8.25 8.25 0 1 0 -16.5 0z" fill="rgba(218, 218, 218, 1)"></path><path d="M1732.5 907.5L1765.5 907.5L1897.5 1039.5" stroke-width="5.5" stroke="rgba(218, 218, 218, 1)"></path><path d="M1724.25 907.5 a8.25 8.25 0 1 0 16.5 0 a8.25 8.25 0 1 0 -16.5 0zM1889.25 1039.5 a8.25 8.25 0 1 0 16.5 0 a8.25 8.25 0 1 0 -16.5 0z" fill="rgba(218, 218, 218, 1)"></path><path d="M1831.5 808.5L1864.5 841.5L1897.5 841.5L1930.5 808.5L1930.5 577.5" stroke-width="5.5" stroke="rgba(218, 218, 218, 1)"></path><path d="M1823.25 808.5 a8.25 8.25 0 1 0 16.5 0 a8.25 8.25 0 1 0 -16.5 0zM1922.25 577.5 a8.25 8.25 0 1 0 16.5 0 a8.25 8.25 0 1 0 -16.5 0z" fill="rgba(218, 218, 218, 1)"></path><path d="M808.5 775.5L940.5 643.5L940.5 511.5" stroke-width="5.5" stroke="rgba(218, 218, 218, 1)"></path><path d="M800.25 775.5 a8.25 8.25 0 1 0 16.5 0 a8.25 8.25 0 1 0 -16.5 0zM932.25 511.5 a8.25 8.25 0 1 0 16.5 0 a8.25 8.25 0 1 0 -16.5 0z" fill="rgba(218, 218, 218, 1)"></path><path d="M181.5 115.5L181.5 181.5L148.5 214.5" stroke-width="5.5" stroke="rgba(218, 218, 218, 1)"></path><path d="M173.25 115.5 a8.25 8.25 0 1 0 16.5 0 a8.25 8.25 0 1 0 -16.5 0zM140.25 214.5 a8.25 8.25 0 1 0 16.5 0 a8.25 8.25 0 1 0 -16.5 0z" fill="rgba(218, 218, 218, 1)"></path><path d="M1864.5 577.5L1831.5 577.5L1699.5 709.5L1666.5 709.5L1633.5 676.5" stroke-width="5.5" stroke="rgba(218, 218, 218, 1)"></path><path d="M1856.25 577.5 a8.25 8.25 0 1 0 16.5 0 a8.25 8.25 0 1 0 -16.5 0zM1625.25 676.5 a8.25 8.25 0 1 0 16.5 0 a8.25 8.25 0 1 0 -16.5 0z" fill="rgba(218, 218, 218, 1)"></path><path d="M412.5 181.5L379.5 181.5L280.5 280.5L280.5 313.5" stroke-width="5.5" stroke="rgba(218, 218, 218, 1)"></path><path d="M404.25 181.5 a8.25 8.25 0 1 0 16.5 0 a8.25 8.25 0 1 0 -16.5 0zM272.25 313.5 a8.25 8.25 0 1 0 16.5 0 a8.25 8.25 0 1 0 -16.5 0z" fill="rgba(218, 218, 218, 1)"></path><path d="M445.5 247.5L511.5 247.5" stroke-width="5.5" stroke="rgba(218, 218, 218, 1)"></path><path d="M437.25 247.5 a8.25 8.25 0 1 0 16.5 0 a8.25 8.25 0 1 0 -16.5 0zM503.25 247.5 a8.25 8.25 0 1 0 16.5 0 a8.25 8.25 0 1 0 -16.5 0z" fill="rgba(218, 218, 218, 1)"></path><path d="M1699.5 610.5L1765.5 610.5" stroke-width="5.5" stroke="rgba(218, 218, 218, 1)"></path><path d="M1691.25 610.5 a8.25 8.25 0 1 0 16.5 0 a8.25 8.25 0 1 0 -16.5 0zM1757.25 610.5 a8.25 8.25 0 1 0 16.5 0 a8.25 8.25 0 1 0 -16.5 0z" fill="rgba(218, 218, 218, 1)"></path><path d="M214.5 49.5L148.5 115.5L148.5 181.5" stroke-width="5.5" stroke="rgba(218, 218, 218, 1)"></path><path d="M206.25 49.5 a8.25 8.25 0 1 0 16.5 0 a8.25 8.25 0 1 0 -16.5 0zM140.25 181.5 a8.25 8.25 0 1 0 16.5 0 a8.25 8.25 0 1 0 -16.5 0z" fill="rgba(218, 218, 218, 1)"></path><path d="M973.5 1006.5L940.5 1006.5L874.5 940.5L874.5 907.5" stroke-width="5.5" stroke="rgba(218, 218, 218, 1)"></path><path d="M965.25 1006.5 a8.25 8.25 0 1 0 16.5 0 a8.25 8.25 0 1 0 -16.5 0zM866.25 907.5 a8.25 8.25 0 1 0 16.5 0 a8.25 8.25 0 1 0 -16.5 0z" fill="rgba(218, 218, 218, 1)"></path><path d="M1633.5 346.5L1765.5 214.5" stroke-width="5.5" stroke="rgba(218, 218, 218, 1)"></path><path d="M1625.25 346.5 a8.25 8.25 0 1 0 16.5 0 a8.25 8.25 0 1 0 -16.5 0zM1757.25 214.5 a8.25 8.25 0 1 0 16.5 0 a8.25 8.25 0 1 0 -16.5 0z" fill="rgba(218, 218, 218, 1)"></path><path d="M1831.5 280.5L1831.5 511.5" stroke-width="5.5" stroke="rgba(218, 218, 218, 1)"></path><path d="M1823.25 280.5 a8.25 8.25 0 1 0 16.5 0 a8.25 8.25 0 1 0 -16.5 0zM1823.25 511.5 a8.25 8.25 0 1 0 16.5 0 a8.25 8.25 0 1 0 -16.5 0z" fill="rgba(218, 218, 218, 1)"></path><path d="M1105.5 1039.5L973.5 1039.5" stroke-width="5.5" stroke="rgba(218, 218, 218, 1)"></path><path d="M1097.25 1039.5 a8.25 8.25 0 1 0 16.5 0 a8.25 8.25 0 1 0 -16.5 0zM965.25 1039.5 a8.25 8.25 0 1 0 16.5 0 a8.25 8.25 0 1 0 -16.5 0z" fill="rgba(218, 218, 218, 1)"></path><path d="M1897.5 709.5L1798.5 808.5L1765.5 808.5L1732.5 775.5L1732.5 742.5L1798.5 676.5L1897.5 676.5" stroke-width="5.5" stroke="rgba(218, 218, 218, 1)"></path><path d="M1889.25 709.5 a8.25 8.25 0 1 0 16.5 0 a8.25 8.25 0 1 0 -16.5 0zM1889.25 676.5 a8.25 8.25 0 1 0 16.5 0 a8.25 8.25 0 1 0 -16.5 0z" fill="rgba(218, 218, 218, 1)"></path><path d="M1963.5 511.5L1864.5 511.5" stroke-width="5.5" stroke="rgba(218, 218, 218, 1)"></path><path d="M1955.25 511.5 a8.25 8.25 0 1 0 16.5 0 a8.25 8.25 0 1 0 -16.5 0zM1856.25 511.5 a8.25 8.25 0 1 0 16.5 0 a8.25 8.25 0 1 0 -16.5 0z" fill="rgba(218, 218, 218, 1)"></path><path d="M1303.5 577.5L1336.5 544.5L1369.5 544.5" stroke-width="5.5" stroke="rgba(218, 218, 218, 1)"></path><path d="M1295.25 577.5 a8.25 8.25 0 1 0 16.5 0 a8.25 8.25 0 1 0 -16.5 0zM1361.25 544.5 a8.25 8.25 0 1 0 16.5 0 a8.25 8.25 0 1 0 -16.5 0z" fill="rgba(218, 218, 218, 1)"></path><path d="M379.5 313.5L412.5 313.5L445.5 280.5" stroke-width="5.5" stroke="rgba(218, 218, 218, 1)"></path><path d="M371.25 313.5 a8.25 8.25 0 1 0 16.5 0 a8.25 8.25 0 1 0 -16.5 0zM437.25 280.5 a8.25 8.25 0 1 0 16.5 0 a8.25 8.25 0 1 0 -16.5 0z" fill="rgba(218, 218, 218, 1)"></path><path d="M775.5 181.5L808.5 214.5L808.5 247.5L742.5 313.5" stroke-width="5.5" stroke="rgba(218, 218, 218, 1)"></path><path d="M767.25 181.5 a8.25 8.25 0 1 0 16.5 0 a8.25 8.25 0 1 0 -16.5 0zM734.25 313.5 a8.25 8.25 0 1 0 16.5 0 a8.25 8.25 0 1 0 -16.5 0z" fill="rgba(218, 218, 218, 1)"></path><path d="M1963.5 379.5L1930.5 346.5L1930.5 247.5L1897.5 214.5" stroke-width="5.5" stroke="rgba(218, 218, 218, 1)"></path><path d="M1955.25 379.5 a8.25 8.25 0 1 0 16.5 0 a8.25 8.25 0 1 0 -16.5 0zM1889.25 214.5 a8.25 8.25 0 1 0 16.5 0 a8.25 8.25 0 1 0 -16.5 0z" fill="rgba(218, 218, 218, 1)"></path><path d="M1864.5 280.5L1864.5 478.5" stroke-width="5.5" stroke="rgba(218, 218, 218, 1)"></path><path d="M1856.25 280.5 a8.25 8.25 0 1 0 16.5 0 a8.25 8.25 0 1 0 -16.5 0zM1856.25 478.5 a8.25 8.25 0 1 0 16.5 0 a8.25 8.25 0 1 0 -16.5 0z" fill="rgba(218, 218, 218, 1)"></path><path d="M1732.5 1006.5L1666.5 940.5L1567.5 940.5L1435.5 1072.5" stroke-width="5.5" stroke="rgba(218, 218, 218, 1)"></path><path d="M1724.25 1006.5 a8.25 8.25 0 1 0 16.5 0 a8.25 8.25 0 1 0 -16.5 0zM1427.25 1072.5 a8.25 8.25 0 1 0 16.5 0 a8.25 8.25 0 1 0 -16.5 0z" fill="rgba(218, 218, 218, 1)"></path><path d="M1666.5 1072.5L1567.5 973.5" stroke-width="5.5" stroke="rgba(218, 218, 218, 1)"></path><path d="M1658.25 1072.5 a8.25 8.25 0 1 0 16.5 0 a8.25 8.25 0 1 0 -16.5 0zM1559.25 973.5 a8.25 8.25 0 1 0 16.5 0 a8.25 8.25 0 1 0 -16.5 0z" fill="rgba(218, 218, 218, 1)"></path><path d="M511.5 346.5L445.5 346.5" stroke-width="5.5" stroke="rgba(218, 218, 218, 1)"></path><path d="M503.25 346.5 a8.25 8.25 0 1 0 16.5 0 a8.25 8.25 0 1 0 -16.5 0zM437.25 346.5 a8.25 8.25 0 1 0 16.5 0 a8.25 8.25 0 1 0 -16.5 0z" fill="rgba(218, 218, 218, 1)"></path><path d="M1138.5 346.5L1006.5 214.5L973.5 214.5" stroke-width="5.5" stroke="rgba(218, 218, 218, 1)"></path><path d="M1130.25 346.5 a8.25 8.25 0 1 0 16.5 0 a8.25 8.25 0 1 0 -16.5 0zM965.25 214.5 a8.25 8.25 0 1 0 16.5 0 a8.25 8.25 0 1 0 -16.5 0z" fill="rgba(218, 218, 218, 1)"></path><path d="M1666.5 247.5L1600.5 313.5" stroke-width="5.5" stroke="rgba(218, 218, 218, 1)"></path><path d="M1658.25 247.5 a8.25 8.25 0 1 0 16.5 0 a8.25 8.25 0 1 0 -16.5 0zM1592.25 313.5 a8.25 8.25 0 1 0 16.5 0 a8.25 8.25 0 1 0 -16.5 0z" fill="rgba(218, 218, 218, 1)"></path><path d="M511.5 841.5L445.5 907.5L445.5 940.5" stroke-width="5.5" stroke="rgba(218, 218, 218, 1)"></path><path d="M503.25 841.5 a8.25 8.25 0 1 0 16.5 0 a8.25 8.25 0 1 0 -16.5 0zM437.25 940.5 a8.25 8.25 0 1 0 16.5 0 a8.25 8.25 0 1 0 -16.5 0z" fill="rgba(218, 218, 218, 1)"></path><path d="M82.5 346.5L82.5 412.5L115.5 445.5" stroke-width="5.5" stroke="rgba(218, 218, 218, 1)"></path><path d="M74.25 346.5 a8.25 8.25 0 1 0 16.5 0 a8.25 8.25 0 1 0 -16.5 0zM107.25 445.5 a8.25 8.25 0 1 0 16.5 0 a8.25 8.25 0 1 0 -16.5 0z" fill="rgba(218, 218, 218, 1)"></path><path d="M313.5 808.5L313.5 709.5" stroke-width="5.5" stroke="rgba(218, 218, 218, 1)"></path><path d="M305.25 808.5 a8.25 8.25 0 1 0 16.5 0 a8.25 8.25 0 1 0 -16.5 0zM305.25 709.5 a8.25 8.25 0 1 0 16.5 0 a8.25 8.25 0 1 0 -16.5 0z" fill="rgba(218, 218, 218, 1)"></path><path d="M1897.5 49.5L1798.5 49.5" stroke-width="5.5" stroke="rgba(218, 218, 218, 1)"></path><path d="M1889.25 49.5 a8.25 8.25 0 1 0 16.5 0 a8.25 8.25 0 1 0 -16.5 0zM1790.25 49.5 a8.25 8.25 0 1 0 16.5 0 a8.25 8.25 0 1 0 -16.5 0z" fill="rgba(218, 218, 218, 1)"></path><path d="M577.5 379.5L577.5 280.5" stroke-width="5.5" stroke="rgba(218, 218, 218, 1)"></path><path d="M569.25 379.5 a8.25 8.25 0 1 0 16.5 0 a8.25 8.25 0 1 0 -16.5 0zM569.25 280.5 a8.25 8.25 0 1 0 16.5 0 a8.25 8.25 0 1 0 -16.5 0z" fill="rgba(218, 218, 218, 1)"></path><path d="M445.5 643.5L478.5 643.5L511.5 610.5L610.5 610.5" stroke-width="5.5" stroke="rgba(218, 218, 218, 1)"></path><path d="M437.25 643.5 a8.25 8.25 0 1 0 16.5 0 a8.25 8.25 0 1 0 -16.5 0zM602.25 610.5 a8.25 8.25 0 1 0 16.5 0 a8.25 8.25 0 1 0 -16.5 0z" fill="rgba(218, 218, 218, 1)"></path><path d="M742.5 907.5L742.5 973.5L709.5 1006.5L643.5 1006.5L577.5 1072.5" stroke-width="5.5" stroke="rgba(218, 218, 218, 1)"></path><path d="M734.25 907.5 a8.25 8.25 0 1 0 16.5 0 a8.25 8.25 0 1 0 -16.5 0zM569.25 1072.5 a8.25 8.25 0 1 0 16.5 0 a8.25 8.25 0 1 0 -16.5 0z" fill="rgba(218, 218, 218, 1)"></path><path d="M808.5 280.5L775.5 313.5L775.5 346.5L841.5 412.5L841.5 478.5" stroke-width="5.5" stroke="rgba(218, 218, 218, 1)"></path><path d="M800.25 280.5 a8.25 8.25 0 1 0 16.5 0 a8.25 8.25 0 1 0 -16.5 0zM833.25 478.5 a8.25 8.25 0 1 0 16.5 0 a8.25 8.25 0 1 0 -16.5 0z" fill="rgba(218, 218, 218, 1)"></path><path d="M874.5 841.5L775.5 940.5" stroke-width="5.5" stroke="rgba(218, 218, 218, 1)"></path><path d="M866.25 841.5 a8.25 8.25 0 1 0 16.5 0 a8.25 8.25 0 1 0 -16.5 0zM767.25 940.5 a8.25 8.25 0 1 0 16.5 0 a8.25 8.25 0 1 0 -16.5 0z" fill="rgba(218, 218, 218, 1)"></path><path d="M742.5 709.5L841.5 709.5L907.5 643.5L907.5 610.5" stroke-width="5.5" stroke="rgba(218, 218, 218, 1)"></path><path d="M734.25 709.5 a8.25 8.25 0 1 0 16.5 0 a8.25 8.25 0 1 0 -16.5 0zM899.25 610.5 a8.25 8.25 0 1 0 16.5 0 a8.25 8.25 0 1 0 -16.5 0z" fill="rgba(218, 218, 218, 1)"></path><path d="M1237.5 973.5L1171.5 907.5L1072.5 907.5L1039.5 874.5" stroke-width="5.5" stroke="rgba(218, 218, 218, 1)"></path><path d="M1229.25 973.5 a8.25 8.25 0 1 0 16.5 0 a8.25 8.25 0 1 0 -16.5 0zM1031.25 874.5 a8.25 8.25 0 1 0 16.5 0 a8.25 8.25 0 1 0 -16.5 0z" fill="rgba(218, 218, 218, 1)"></path><path d="M1534.5 874.5L1600.5 808.5" stroke-width="5.5" stroke="rgba(218, 218, 218, 1)"></path><path d="M1526.25 874.5 a8.25 8.25 0 1 0 16.5 0 a8.25 8.25 0 1 0 -16.5 0zM1592.25 808.5 a8.25 8.25 0 1 0 16.5 0 a8.25 8.25 0 1 0 -16.5 0z" fill="rgba(218, 218, 218, 1)"></path><path d="M379.5 445.5L478.5 445.5L577.5 544.5" stroke-width="5.5" stroke="rgba(218, 218, 218, 1)"></path><path d="M371.25 445.5 a8.25 8.25 0 1 0 16.5 0 a8.25 8.25 0 1 0 -16.5 0zM569.25 544.5 a8.25 8.25 0 1 0 16.5 0 a8.25 8.25 0 1 0 -16.5 0z" fill="rgba(218, 218, 218, 1)"></path><path d="M346.5 775.5L346.5 742.5L379.5 709.5L544.5 709.5L577.5 676.5" stroke-width="5.5" stroke="rgba(218, 218, 218, 1)"></path><path d="M338.25 775.5 a8.25 8.25 0 1 0 16.5 0 a8.25 8.25 0 1 0 -16.5 0zM569.25 676.5 a8.25 8.25 0 1 0 16.5 0 a8.25 8.25 0 1 0 -16.5 0z" fill="rgba(218, 218, 218, 1)"></path><path d="M1435.5 82.5L1468.5 49.5L1468.5 16.5" stroke-width="5.5" stroke="rgba(218, 218, 218, 1)"></path><path d="M1427.25 82.5 a8.25 8.25 0 1 0 16.5 0 a8.25 8.25 0 1 0 -16.5 0zM1460.25 16.5 a8.25 8.25 0 1 0 16.5 0 a8.25 8.25 0 1 0 -16.5 0z" fill="rgba(218, 218, 218, 1)"></path><path d="M1963.5 478.5L1963.5 412.5L1930.5 379.5" stroke-width="5.5" stroke="rgba(218, 218, 218, 1)"></path><path d="M1955.25 478.5 a8.25 8.25 0 1 0 16.5 0 a8.25 8.25 0 1 0 -16.5 0zM1922.25 379.5 a8.25 8.25 0 1 0 16.5 0 a8.25 8.25 0 1 0 -16.5 0z" fill="rgba(218, 218, 218, 1)"></path><path d="M280.5 49.5L313.5 49.5L346.5 16.5" stroke-width="5.5" stroke="rgba(218, 218, 218, 1)"></path><path d="M272.25 49.5 a8.25 8.25 0 1 0 16.5 0 a8.25 8.25 0 1 0 -16.5 0zM338.25 16.5 a8.25 8.25 0 1 0 16.5 0 a8.25 8.25 0 1 0 -16.5 0z" fill="rgba(218, 218, 218, 1)"></path><path d="M709.5 280.5L742.5 280.5L775.5 247.5L775.5 214.5L742.5 181.5L577.5 181.5L544.5 148.5" stroke-width="5.5" stroke="rgba(218, 218, 218, 1)"></path><path d="M701.25 280.5 a8.25 8.25 0 1 0 16.5 0 a8.25 8.25 0 1 0 -16.5 0zM536.25 148.5 a8.25 8.25 0 1 0 16.5 0 a8.25 8.25 0 1 0 -16.5 0z" fill="rgba(218, 218, 218, 1)"></path><path d="M1237.5 907.5L1270.5 940.5L1303.5 940.5L1336.5 907.5L1336.5 841.5" stroke-width="5.5" stroke="rgba(218, 218, 218, 1)"></path><path d="M1229.25 907.5 a8.25 8.25 0 1 0 16.5 0 a8.25 8.25 0 1 0 -16.5 0zM1328.25 841.5 a8.25 8.25 0 1 0 16.5 0 a8.25 8.25 0 1 0 -16.5 0z" fill="rgba(218, 218, 218, 1)"></path><path d="M1270.5 82.5L1204.5 16.5L1171.5 16.5" stroke-width="5.5" stroke="rgba(218, 218, 218, 1)"></path><path d="M1262.25 82.5 a8.25 8.25 0 1 0 16.5 0 a8.25 8.25 0 1 0 -16.5 0zM1163.25 16.5 a8.25 8.25 0 1 0 16.5 0 a8.25 8.25 0 1 0 -16.5 0z" fill="rgba(218, 218, 218, 1)"></path><path d="M775.5 478.5L709.5 544.5L676.5 544.5" stroke-width="5.5" stroke="rgba(218, 218, 218, 1)"></path><path d="M767.25 478.5 a8.25 8.25 0 1 0 16.5 0 a8.25 8.25 0 1 0 -16.5 0zM668.25 544.5 a8.25 8.25 0 1 0 16.5 0 a8.25 8.25 0 1 0 -16.5 0z" fill="rgba(218, 218, 218, 1)"></path><path d="M1204.5 1006.5L1138.5 940.5L1105.5 940.5" stroke-width="5.5" stroke="rgba(218, 218, 218, 1)"></path><path d="M1196.25 1006.5 a8.25 8.25 0 1 0 16.5 0 a8.25 8.25 0 1 0 -16.5 0zM1097.25 940.5 a8.25 8.25 0 1 0 16.5 0 a8.25 8.25 0 1 0 -16.5 0z" fill="rgba(218, 218, 218, 1)"></path><path d="M1963.5 280.5L1963.5 148.5" stroke-width="5.5" stroke="rgba(218, 218, 218, 1)"></path><path d="M1955.25 280.5 a8.25 8.25 0 1 0 16.5 0 a8.25 8.25 0 1 0 -16.5 0zM1955.25 148.5 a8.25 8.25 0 1 0 16.5 0 a8.25 8.25 0 1 0 -16.5 0z" fill="rgba(218, 218, 218, 1)"></path><path d="M1336.5 148.5L1336.5 214.5" stroke-width="5.5" stroke="rgba(218, 218, 218, 1)"></path><path d="M1328.25 148.5 a8.25 8.25 0 1 0 16.5 0 a8.25 8.25 0 1 0 -16.5 0zM1328.25 214.5 a8.25 8.25 0 1 0 16.5 0 a8.25 8.25 0 1 0 -16.5 0z" fill="rgba(218, 218, 218, 1)"></path><path d="M1204.5 148.5L1171.5 148.5L1138.5 115.5" stroke-width="5.5" stroke="rgba(218, 218, 218, 1)"></path><path d="M1196.25 148.5 a8.25 8.25 0 1 0 16.5 0 a8.25 8.25 0 1 0 -16.5 0zM1130.25 115.5 a8.25 8.25 0 1 0 16.5 0 a8.25 8.25 0 1 0 -16.5 0z" fill="rgba(218, 218, 218, 1)"></path><path d="M1864.5 709.5L1798.5 709.5L1765.5 742.5L1765.5 775.5" stroke-width="5.5" stroke="rgba(218, 218, 218, 1)"></path><path d="M1856.25 709.5 a8.25 8.25 0 1 0 16.5 0 a8.25 8.25 0 1 0 -16.5 0zM1757.25 775.5 a8.25 8.25 0 1 0 16.5 0 a8.25 8.25 0 1 0 -16.5 0z" fill="rgba(218, 218, 218, 1)"></path><path d="M181.5 709.5L181.5 676.5L115.5 610.5" stroke-width="5.5" stroke="rgba(218, 218, 218, 1)"></path><path d="M173.25 709.5 a8.25 8.25 0 1 0 16.5 0 a8.25 8.25 0 1 0 -16.5 0zM107.25 610.5 a8.25 8.25 0 1 0 16.5 0 a8.25 8.25 0 1 0 -16.5 0z" fill="rgba(218, 218, 218, 1)"></path><path d="M346.5 610.5L379.5 643.5L412.5 643.5L445.5 610.5L478.5 610.5" stroke-width="5.5" stroke="rgba(218, 218, 218, 1)"></path><path d="M338.25 610.5 a8.25 8.25 0 1 0 16.5 0 a8.25 8.25 0 1 0 -16.5 0zM470.25 610.5 a8.25 8.25 0 1 0 16.5 0 a8.25 8.25 0 1 0 -16.5 0z" fill="rgba(218, 218, 218, 1)"></path><path d="M16.5 973.5L115.5 1072.5" stroke-width="5.5" stroke="rgba(218, 218, 218, 1)"></path><path d="M8.25 973.5 a8.25 8.25 0 1 0 16.5 0 a8.25 8.25 0 1 0 -16.5 0zM107.25 1072.5 a8.25 8.25 0 1 0 16.5 0 a8.25 8.25 0 1 0 -16.5 0z" fill="rgba(218, 218, 218, 1)"></path><path d="M709.5 148.5L643.5 148.5L610.5 115.5" stroke-width="5.5" stroke="rgba(218, 218, 218, 1)"></path><path d="M701.25 148.5 a8.25 8.25 0 1 0 16.5 0 a8.25 8.25 0 1 0 -16.5 0zM602.25 115.5 a8.25 8.25 0 1 0 16.5 0 a8.25 8.25 0 1 0 -16.5 0z" fill="rgba(218, 218, 218, 1)"></path><path d="M1072.5 115.5L1006.5 181.5" stroke-width="5.5" stroke="rgba(218, 218, 218, 1)"></path><path d="M1064.25 115.5 a8.25 8.25 0 1 0 16.5 0 a8.25 8.25 0 1 0 -16.5 0zM998.25 181.5 a8.25 8.25 0 1 0 16.5 0 a8.25 8.25 0 1 0 -16.5 0z" fill="rgba(218, 218, 218, 1)"></path><path d="M82.5 742.5L49.5 775.5L49.5 808.5" stroke-width="5.5" stroke="rgba(218, 218, 218, 1)"></path><path d="M74.25 742.5 a8.25 8.25 0 1 0 16.5 0 a8.25 8.25 0 1 0 -16.5 0zM41.25 808.5 a8.25 8.25 0 1 0 16.5 0 a8.25 8.25 0 1 0 -16.5 0z" fill="rgba(218, 218, 218, 1)"></path><path d="M1600.5 511.5L1600.5 445.5L1567.5 412.5L1534.5 412.5" stroke-width="5.5" stroke="rgba(218, 218, 218, 1)"></path><path d="M1592.25 511.5 a8.25 8.25 0 1 0 16.5 0 a8.25 8.25 0 1 0 -16.5 0zM1526.25 412.5 a8.25 8.25 0 1 0 16.5 0 a8.25 8.25 0 1 0 -16.5 0z" fill="rgba(218, 218, 218, 1)"></path><path d="M841.5 346.5L841.5 313.5L874.5 280.5L874.5 115.5" stroke-width="5.5" stroke="rgba(218, 218, 218, 1)"></path><path d="M833.25 346.5 a8.25 8.25 0 1 0 16.5 0 a8.25 8.25 0 1 0 -16.5 0zM866.25 115.5 a8.25 8.25 0 1 0 16.5 0 a8.25 8.25 0 1 0 -16.5 0z" fill="rgba(218, 218, 218, 1)"></path><path d="M775.5 676.5L841.5 610.5L874.5 610.5" stroke-width="5.5" stroke="rgba(218, 218, 218, 1)"></path><path d="M767.25 676.5 a8.25 8.25 0 1 0 16.5 0 a8.25 8.25 0 1 0 -16.5 0zM866.25 610.5 a8.25 8.25 0 1 0 16.5 0 a8.25 8.25 0 1 0 -16.5 0z" fill="rgba(218, 218, 218, 1)"></path><path d="M148.5 742.5L148.5 676.5L115.5 643.5" stroke-width="5.5" stroke="rgba(218, 218, 218, 1)"></path><path d="M140.25 742.5 a8.25 8.25 0 1 0 16.5 0 a8.25 8.25 0 1 0 -16.5 0zM107.25 643.5 a8.25 8.25 0 1 0 16.5 0 a8.25 8.25 0 1 0 -16.5 0z" fill="rgba(218, 218, 218, 1)"></path><path d="M1402.5 148.5L1270.5 16.5L1237.5 16.5" stroke-width="5.5" stroke="rgba(218, 218, 218, 1)"></path><path d="M1394.25 148.5 a8.25 8.25 0 1 0 16.5 0 a8.25 8.25 0 1 0 -16.5 0zM1229.25 16.5 a8.25 8.25 0 1 0 16.5 0 a8.25 8.25 0 1 0 -16.5 0z" fill="rgba(218, 218, 218, 1)"></path><path d="M1105.5 577.5L1138.5 544.5L1204.5 544.5" stroke-width="5.5" stroke="rgba(218, 218, 218, 1)"></path><path d="M1097.25 577.5 a8.25 8.25 0 1 0 16.5 0 a8.25 8.25 0 1 0 -16.5 0zM1196.25 544.5 a8.25 8.25 0 1 0 16.5 0 a8.25 8.25 0 1 0 -16.5 0z" fill="rgba(218, 218, 218, 1)"></path><path d="M1006.5 379.5L973.5 412.5L973.5 445.5" stroke-width="5.5" stroke="rgba(218, 218, 218, 1)"></path><path d="M998.25 379.5 a8.25 8.25 0 1 0 16.5 0 a8.25 8.25 0 1 0 -16.5 0zM965.25 445.5 a8.25 8.25 0 1 0 16.5 0 a8.25 8.25 0 1 0 -16.5 0z" fill="rgba(218, 218, 218, 1)"></path><path d="M742.5 445.5L709.5 412.5L709.5 346.5" stroke-width="5.5" stroke="rgba(218, 218, 218, 1)"></path><path d="M734.25 445.5 a8.25 8.25 0 1 0 16.5 0 a8.25 8.25 0 1 0 -16.5 0zM701.25 346.5 a8.25 8.25 0 1 0 16.5 0 a8.25 8.25 0 1 0 -16.5 0z" fill="rgba(218, 218, 218, 1)"></path><path d="M1798.5 643.5L1831.5 610.5L1897.5 610.5" stroke-width="5.5" stroke="rgba(218, 218, 218, 1)"></path><path d="M1790.25 643.5 a8.25 8.25 0 1 0 16.5 0 a8.25 8.25 0 1 0 -16.5 0zM1889.25 610.5 a8.25 8.25 0 1 0 16.5 0 a8.25 8.25 0 1 0 -16.5 0z" fill="rgba(218, 218, 218, 1)"></path><path d="M1369.5 49.5L1435.5 49.5" stroke-width="5.5" stroke="rgba(218, 218, 218, 1)"></path><path d="M1361.25 49.5 a8.25 8.25 0 1 0 16.5 0 a8.25 8.25 0 1 0 -16.5 0zM1427.25 49.5 a8.25 8.25 0 1 0 16.5 0 a8.25 8.25 0 1 0 -16.5 0z" fill="rgba(218, 218, 218, 1)"></path><path d="M1600.5 643.5L1666.5 577.5" stroke-width="5.5" stroke="rgba(218, 218, 218, 1)"></path><path d="M1592.25 643.5 a8.25 8.25 0 1 0 16.5 0 a8.25 8.25 0 1 0 -16.5 0zM1658.25 577.5 a8.25 8.25 0 1 0 16.5 0 a8.25 8.25 0 1 0 -16.5 0z" fill="rgba(218, 218, 218, 1)"></path><path d="M742.5 148.5L709.5 115.5L643.5 115.5" stroke-width="5.5" stroke="rgba(218, 218, 218, 1)"></path><path d="M734.25 148.5 a8.25 8.25 0 1 0 16.5 0 a8.25 8.25 0 1 0 -16.5 0zM635.25 115.5 a8.25 8.25 0 1 0 16.5 0 a8.25 8.25 0 1 0 -16.5 0z" fill="rgba(218, 218, 218, 1)"></path><path d="M1930.5 940.5L1897.5 940.5L1864.5 907.5" stroke-width="5.5" stroke="rgba(218, 218, 218, 1)"></path><path d="M1922.25 940.5 a8.25 8.25 0 1 0 16.5 0 a8.25 8.25 0 1 0 -16.5 0zM1856.25 907.5 a8.25 8.25 0 1 0 16.5 0 a8.25 8.25 0 1 0 -16.5 0z" fill="rgba(218, 218, 218, 1)"></path><path d="M1699.5 313.5L1666.5 346.5L1666.5 379.5" stroke-width="5.5" stroke="rgba(218, 218, 218, 1)"></path><path d="M1691.25 313.5 a8.25 8.25 0 1 0 16.5 0 a8.25 8.25 0 1 0 -16.5 0zM1658.25 379.5 a8.25 8.25 0 1 0 16.5 0 a8.25 8.25 0 1 0 -16.5 0z" fill="rgba(218, 218, 218, 1)"></path><path d="M1798.5 445.5L1765.5 445.5L1732.5 412.5" stroke-width="5.5" stroke="rgba(218, 218, 218, 1)"></path><path d="M1790.25 445.5 a8.25 8.25 0 1 0 16.5 0 a8.25 8.25 0 1 0 -16.5 0zM1724.25 412.5 a8.25 8.25 0 1 0 16.5 0 a8.25 8.25 0 1 0 -16.5 0z" fill="rgba(218, 218, 218, 1)"></path><path d="M1171.5 181.5L1138.5 214.5L1138.5 280.5L1171.5 313.5" stroke-width="5.5" stroke="rgba(218, 218, 218, 1)"></path><path d="M1163.25 181.5 a8.25 8.25 0 1 0 16.5 0 a8.25 8.25 0 1 0 -16.5 0zM1163.25 313.5 a8.25 8.25 0 1 0 16.5 0 a8.25 8.25 0 1 0 -16.5 0z" fill="rgba(218, 218, 218, 1)"></path><path d="M313.5 412.5L445.5 412.5" stroke-width="5.5" stroke="rgba(218, 218, 218, 1)"></path><path d="M305.25 412.5 a8.25 8.25 0 1 0 16.5 0 a8.25 8.25 0 1 0 -16.5 0zM437.25 412.5 a8.25 8.25 0 1 0 16.5 0 a8.25 8.25 0 1 0 -16.5 0z" fill="rgba(218, 218, 218, 1)"></path><path d="M181.5 742.5L115.5 808.5L82.5 808.5" stroke-width="5.5" stroke="rgba(218, 218, 218, 1)"></path><path d="M173.25 742.5 a8.25 8.25 0 1 0 16.5 0 a8.25 8.25 0 1 0 -16.5 0zM74.25 808.5 a8.25 8.25 0 1 0 16.5 0 a8.25 8.25 0 1 0 -16.5 0z" fill="rgba(218, 218, 218, 1)"></path><path d="M313.5 280.5L412.5 280.5" stroke-width="5.5" stroke="rgba(218, 218, 218, 1)"></path><path d="M305.25 280.5 a8.25 8.25 0 1 0 16.5 0 a8.25 8.25 0 1 0 -16.5 0zM404.25 280.5 a8.25 8.25 0 1 0 16.5 0 a8.25 8.25 0 1 0 -16.5 0z" fill="rgba(218, 218, 218, 1)"></path><path d="M808.5 676.5L841.5 676.5L874.5 643.5" stroke-width="5.5" stroke="rgba(218, 218, 218, 1)"></path><path d="M800.25 676.5 a8.25 8.25 0 1 0 16.5 0 a8.25 8.25 0 1 0 -16.5 0zM866.25 643.5 a8.25 8.25 0 1 0 16.5 0 a8.25 8.25 0 1 0 -16.5 0z" fill="rgba(218, 218, 218, 1)"></path><path d="M1435.5 643.5L1435.5 610.5L1501.5 544.5" stroke-width="5.5" stroke="rgba(218, 218, 218, 1)"></path><path d="M1427.25 643.5 a8.25 8.25 0 1 0 16.5 0 a8.25 8.25 0 1 0 -16.5 0zM1493.25 544.5 a8.25 8.25 0 1 0 16.5 0 a8.25 8.25 0 1 0 -16.5 0z" fill="rgba(218, 218, 218, 1)"></path><path d="M1039.5 280.5L1039.5 379.5" stroke-width="5.5" stroke="rgba(218, 218, 218, 1)"></path><path d="M1031.25 280.5 a8.25 8.25 0 1 0 16.5 0 a8.25 8.25 0 1 0 -16.5 0zM1031.25 379.5 a8.25 8.25 0 1 0 16.5 0 a8.25 8.25 0 1 0 -16.5 0z" fill="rgba(218, 218, 218, 1)"></path><path d="M1864.5 1039.5L1732.5 1039.5" stroke-width="5.5" stroke="rgba(218, 218, 218, 1)"></path><path d="M1856.25 1039.5 a8.25 8.25 0 1 0 16.5 0 a8.25 8.25 0 1 0 -16.5 0zM1724.25 1039.5 a8.25 8.25 0 1 0 16.5 0 a8.25 8.25 0 1 0 -16.5 0z" fill="rgba(218, 218, 218, 1)"></path><path d="M1897.5 643.5L1831.5 643.5" stroke-width="5.5" stroke="rgba(218, 218, 218, 1)"></path><path d="M1889.25 643.5 a8.25 8.25 0 1 0 16.5 0 a8.25 8.25 0 1 0 -16.5 0zM1823.25 643.5 a8.25 8.25 0 1 0 16.5 0 a8.25 8.25 0 1 0 -16.5 0z" fill="rgba(218, 218, 218, 1)"></path><path d="M1765.5 412.5L1798.5 379.5L1798.5 313.5" stroke-width="5.5" stroke="rgba(218, 218, 218, 1)"></path><path d="M1757.25 412.5 a8.25 8.25 0 1 0 16.5 0 a8.25 8.25 0 1 0 -16.5 0zM1790.25 313.5 a8.25 8.25 0 1 0 16.5 0 a8.25 8.25 0 1 0 -16.5 0z" fill="rgba(218, 218, 218, 1)"></path><path d="M808.5 1006.5L841.5 1039.5L874.5 1039.5" stroke-width="5.5" stroke="rgba(218, 218, 218, 1)"></path><path d="M800.25 1006.5 a8.25 8.25 0 1 0 16.5 0 a8.25 8.25 0 1 0 -16.5 0zM866.25 1039.5 a8.25 8.25 0 1 0 16.5 0 a8.25 8.25 0 1 0 -16.5 0z" fill="rgba(218, 218, 218, 1)"></path><path d="M1666.5 973.5L1600.5 973.5" stroke-width="5.5" stroke="rgba(218, 218, 218, 1)"></path><path d="M1658.25 973.5 a8.25 8.25 0 1 0 16.5 0 a8.25 8.25 0 1 0 -16.5 0zM1592.25 973.5 a8.25 8.25 0 1 0 16.5 0 a8.25 8.25 0 1 0 -16.5 0z" fill="rgba(218, 218, 218, 1)"></path><path d="M214.5 115.5L214.5 82.5L280.5 16.5L313.5 16.5" stroke-width="5.5" stroke="rgba(218, 218, 218, 1)"></path><path d="M206.25 115.5 a8.25 8.25 0 1 0 16.5 0 a8.25 8.25 0 1 0 -16.5 0zM305.25 16.5 a8.25 8.25 0 1 0 16.5 0 a8.25 8.25 0 1 0 -16.5 0z" fill="rgba(218, 218, 218, 1)"></path><path d="M874.5 16.5L1006.5 16.5L1039.5 49.5" stroke-width="5.5" stroke="rgba(218, 218, 218, 1)"></path><path d="M866.25 16.5 a8.25 8.25 0 1 0 16.5 0 a8.25 8.25 0 1 0 -16.5 0zM1031.25 49.5 a8.25 8.25 0 1 0 16.5 0 a8.25 8.25 0 1 0 -16.5 0z" fill="rgba(218, 218, 218, 1)"></path><path d="M1567.5 148.5L1600.5 115.5L1600.5 82.5" stroke-width="5.5" stroke="rgba(218, 218, 218, 1)"></path><path d="M1559.25 148.5 a8.25 8.25 0 1 0 16.5 0 a8.25 8.25 0 1 0 -16.5 0zM1592.25 82.5 a8.25 8.25 0 1 0 16.5 0 a8.25 8.25 0 1 0 -16.5 0z" fill="rgba(218, 218, 218, 1)"></path><path d="M742.5 214.5L643.5 214.5L610.5 247.5" stroke-width="5.5" stroke="rgba(218, 218, 218, 1)"></path><path d="M734.25 214.5 a8.25 8.25 0 1 0 16.5 0 a8.25 8.25 0 1 0 -16.5 0zM602.25 247.5 a8.25 8.25 0 1 0 16.5 0 a8.25 8.25 0 1 0 -16.5 0z" fill="rgba(218, 218, 218, 1)"></path><path d="M742.5 49.5L610.5 49.5" stroke-width="5.5" stroke="rgba(218, 218, 218, 1)"></path><path d="M734.25 49.5 a8.25 8.25 0 1 0 16.5 0 a8.25 8.25 0 1 0 -16.5 0zM602.25 49.5 a8.25 8.25 0 1 0 16.5 0 a8.25 8.25 0 1 0 -16.5 0z" fill="rgba(218, 218, 218, 1)"></path><path d="M1765.5 1006.5L1831.5 1006.5" stroke-width="5.5" stroke="rgba(218, 218, 218, 1)"></path><path d="M1757.25 1006.5 a8.25 8.25 0 1 0 16.5 0 a8.25 8.25 0 1 0 -16.5 0zM1823.25 1006.5 a8.25 8.25 0 1 0 16.5 0 a8.25 8.25 0 1 0 -16.5 0z" fill="rgba(218, 218, 218, 1)"></path><path d="M1435.5 214.5L1369.5 214.5" stroke-width="5.5" stroke="rgba(218, 218, 218, 1)"></path><path d="M1427.25 214.5 a8.25 8.25 0 1 0 16.5 0 a8.25 8.25 0 1 0 -16.5 0zM1361.25 214.5 a8.25 8.25 0 1 0 16.5 0 a8.25 8.25 0 1 0 -16.5 0z" fill="rgba(218, 218, 218, 1)"></path><path d="M1336.5 676.5L1336.5 742.5" stroke-width="5.5" stroke="rgba(218, 218, 218, 1)"></path><path d="M1328.25 676.5 a8.25 8.25 0 1 0 16.5 0 a8.25 8.25 0 1 0 -16.5 0zM1328.25 742.5 a8.25 8.25 0 1 0 16.5 0 a8.25 8.25 0 1 0 -16.5 0z" fill="rgba(218, 218, 218, 1)"></path><path d="M1303.5 379.5L1303.5 280.5" stroke-width="5.5" stroke="rgba(218, 218, 218, 1)"></path><path d="M1295.25 379.5 a8.25 8.25 0 1 0 16.5 0 a8.25 8.25 0 1 0 -16.5 0zM1295.25 280.5 a8.25 8.25 0 1 0 16.5 0 a8.25 8.25 0 1 0 -16.5 0z" fill="rgba(218, 218, 218, 1)"></path><path d="M1534.5 1072.5L1567.5 1039.5L1567.5 1006.5" stroke-width="5.5" stroke="rgba(218, 218, 218, 1)"></path><path d="M1526.25 1072.5 a8.25 8.25 0 1 0 16.5 0 a8.25 8.25 0 1 0 -16.5 0zM1559.25 1006.5 a8.25 8.25 0 1 0 16.5 0 a8.25 8.25 0 1 0 -16.5 0z" fill="rgba(218, 218, 218, 1)"></path><path d="M1897.5 907.5L1963.5 907.5" stroke-width="5.5" stroke="rgba(218, 218, 218, 1)"></path><path d="M1889.25 907.5 a8.25 8.25 0 1 0 16.5 0 a8.25 8.25 0 1 0 -16.5 0zM1955.25 907.5 a8.25 8.25 0 1 0 16.5 0 a8.25 8.25 0 1 0 -16.5 0z" fill="rgba(218, 218, 218, 1)"></path><path d="M1435.5 16.5L1336.5 16.5" stroke-width="5.5" stroke="rgba(218, 218, 218, 1)"></path><path d="M1427.25 16.5 a8.25 8.25 0 1 0 16.5 0 a8.25 8.25 0 1 0 -16.5 0zM1328.25 16.5 a8.25 8.25 0 1 0 16.5 0 a8.25 8.25 0 1 0 -16.5 0z" fill="rgba(218, 218, 218, 1)"></path><path d="M577.5 511.5L577.5 445.5L544.5 412.5L511.5 412.5" stroke-width="5.5" stroke="rgba(218, 218, 218, 1)"></path><path d="M569.25 511.5 a8.25 8.25 0 1 0 16.5 0 a8.25 8.25 0 1 0 -16.5 0zM503.25 412.5 a8.25 8.25 0 1 0 16.5 0 a8.25 8.25 0 1 0 -16.5 0z" fill="rgba(218, 218, 218, 1)"></path><path d="M907.5 49.5L1006.5 49.5" stroke-width="5.5" stroke="rgba(218, 218, 218, 1)"></path><path d="M899.25 49.5 a8.25 8.25 0 1 0 16.5 0 a8.25 8.25 0 1 0 -16.5 0zM998.25 49.5 a8.25 8.25 0 1 0 16.5 0 a8.25 8.25 0 1 0 -16.5 0z" fill="rgba(218, 218, 218, 1)"></path><path d="M742.5 1039.5L808.5 1039.5" stroke-width="5.5" stroke="rgba(218, 218, 218, 1)"></path><path d="M734.25 1039.5 a8.25 8.25 0 1 0 16.5 0 a8.25 8.25 0 1 0 -16.5 0zM800.25 1039.5 a8.25 8.25 0 1 0 16.5 0 a8.25 8.25 0 1 0 -16.5 0z" fill="rgba(218, 218, 218, 1)"></path><path d="M511.5 1006.5L511.5 973.5L544.5 940.5" stroke-width="5.5" stroke="rgba(218, 218, 218, 1)"></path><path d="M503.25 1006.5 a8.25 8.25 0 1 0 16.5 0 a8.25 8.25 0 1 0 -16.5 0zM536.25 940.5 a8.25 8.25 0 1 0 16.5 0 a8.25 8.25 0 1 0 -16.5 0z" fill="rgba(218, 218, 218, 1)"></path><path d="M544.5 544.5L511.5 511.5L478.5 511.5" stroke-width="5.5" stroke="rgba(218, 218, 218, 1)"></path><path d="M536.25 544.5 a8.25 8.25 0 1 0 16.5 0 a8.25 8.25 0 1 0 -16.5 0zM470.25 511.5 a8.25 8.25 0 1 0 16.5 0 a8.25 8.25 0 1 0 -16.5 0z" fill="rgba(218, 218, 218, 1)"></path><path d="M1237.5 1006.5L1270.5 1006.5L1303.5 1039.5" stroke-width="5.5" stroke="rgba(218, 218, 218, 1)"></path><path d="M1229.25 1006.5 a8.25 8.25 0 1 0 16.5 0 a8.25 8.25 0 1 0 -16.5 0zM1295.25 1039.5 a8.25 8.25 0 1 0 16.5 0 a8.25 8.25 0 1 0 -16.5 0z" fill="rgba(218, 218, 218, 1)"></path><path d="M1072.5 676.5L1072.5 775.5" stroke-width="5.5" stroke="rgba(218, 218, 218, 1)"></path><path d="M1064.25 676.5 a8.25 8.25 0 1 0 16.5 0 a8.25 8.25 0 1 0 -16.5 0zM1064.25 775.5 a8.25 8.25 0 1 0 16.5 0 a8.25 8.25 0 1 0 -16.5 0z" fill="rgba(218, 218, 218, 1)"></path><path d="M1468.5 1072.5L1501.5 1072.5L1534.5 1039.5L1534.5 1006.5" stroke-width="5.5" stroke="rgba(218, 218, 218, 1)"></path><path d="M1460.25 1072.5 a8.25 8.25 0 1 0 16.5 0 a8.25 8.25 0 1 0 -16.5 0zM1526.25 1006.5 a8.25 8.25 0 1 0 16.5 0 a8.25 8.25 0 1 0 -16.5 0z" fill="rgba(218, 218, 218, 1)"></path><path d="M1105.5 610.5L1138.5 610.5L1171.5 577.5L1204.5 577.5" stroke-width="5.5" stroke="rgba(218, 218, 218, 1)"></path><path d="M1097.25 610.5 a8.25 8.25 0 1 0 16.5 0 a8.25 8.25 0 1 0 -16.5 0zM1196.25 577.5 a8.25 8.25 0 1 0 16.5 0 a8.25 8.25 0 1 0 -16.5 0z" fill="rgba(218, 218, 218, 1)"></path><path d="M313.5 445.5L280.5 412.5L247.5 412.5" stroke-width="5.5" stroke="rgba(218, 218, 218, 1)"></path><path d="M305.25 445.5 a8.25 8.25 0 1 0 16.5 0 a8.25 8.25 0 1 0 -16.5 0zM239.25 412.5 a8.25 8.25 0 1 0 16.5 0 a8.25 8.25 0 1 0 -16.5 0z" fill="rgba(218, 218, 218, 1)"></path><path d="M643.5 280.5L676.5 247.5L742.5 247.5" stroke-width="5.5" stroke="rgba(218, 218, 218, 1)"></path><path d="M635.25 280.5 a8.25 8.25 0 1 0 16.5 0 a8.25 8.25 0 1 0 -16.5 0zM734.25 247.5 a8.25 8.25 0 1 0 16.5 0 a8.25 8.25 0 1 0 -16.5 0z" fill="rgba(218, 218, 218, 1)"></path><path d="M1534.5 82.5L1534.5 16.5" stroke-width="5.5" stroke="rgba(218, 218, 218, 1)"></path><path d="M1526.25 82.5 a8.25 8.25 0 1 0 16.5 0 a8.25 8.25 0 1 0 -16.5 0zM1526.25 16.5 a8.25 8.25 0 1 0 16.5 0 a8.25 8.25 0 1 0 -16.5 0z" fill="rgba(218, 218, 218, 1)"></path><path d="M1006.5 346.5L973.5 313.5L973.5 280.5" stroke-width="5.5" stroke="rgba(218, 218, 218, 1)"></path><path d="M998.25 346.5 a8.25 8.25 0 1 0 16.5 0 a8.25 8.25 0 1 0 -16.5 0zM965.25 280.5 a8.25 8.25 0 1 0 16.5 0 a8.25 8.25 0 1 0 -16.5 0z" fill="rgba(218, 218, 218, 1)"></path><path d="M346.5 247.5L379.5 214.5L412.5 214.5" stroke-width="5.5" stroke="rgba(218, 218, 218, 1)"></path><path d="M338.25 247.5 a8.25 8.25 0 1 0 16.5 0 a8.25 8.25 0 1 0 -16.5 0zM404.25 214.5 a8.25 8.25 0 1 0 16.5 0 a8.25 8.25 0 1 0 -16.5 0z" fill="rgba(218, 218, 218, 1)"></path><path d="M1567.5 742.5L1501.5 742.5" stroke-width="5.5" stroke="rgba(218, 218, 218, 1)"></path><path d="M1559.25 742.5 a8.25 8.25 0 1 0 16.5 0 a8.25 8.25 0 1 0 -16.5 0zM1493.25 742.5 a8.25 8.25 0 1 0 16.5 0 a8.25 8.25 0 1 0 -16.5 0z" fill="rgba(218, 218, 218, 1)"></path><path d="M16.5 511.5L16.5 577.5" stroke-width="5.5" stroke="rgba(218, 218, 218, 1)"></path><path d="M8.25 511.5 a8.25 8.25 0 1 0 16.5 0 a8.25 8.25 0 1 0 -16.5 0zM8.25 577.5 a8.25 8.25 0 1 0 16.5 0 a8.25 8.25 0 1 0 -16.5 0z" fill="rgba(218, 218, 218, 1)"></path></g></g><defs><mask id="SvgjsMask1111"><rect width="1980" height="1080" fill="#ffffff"></rect></mask><mask id="SvgjsMask1112"><rect width="1980" height="1080" fill="white"></rect><path d="M1233.37 214.5 a4.13 4.13 0 1 0 8.26 0 a4.13 4.13 0 1 0 -8.26 0zM1101.37 841.5 a4.13 4.13 0 1 0 8.26 0 a4.13 4.13 0 1 0 -8.26 0z" fill="black"></path><path d="M309.37 841.5 a4.13 4.13 0 1 0 8.26 0 a4.13 4.13 0 1 0 -8.26 0zM309.37 1072.5 a4.13 4.13 0 1 0 8.26 0 a4.13 4.13 0 1 0 -8.26 0z" fill="black"></path><path d="M1299.37 742.5 a4.13 4.13 0 1 0 8.26 0 a4.13 4.13 0 1 0 -8.26 0zM1266.37 115.5 a4.13 4.13 0 1 0 8.26 0 a4.13 4.13 0 1 0 -8.26 0z" fill="black"></path><path d="M1860.37 214.5 a4.13 4.13 0 1 0 8.26 0 a4.13 4.13 0 1 0 -8.26 0zM1959.37 16.5 a4.13 4.13 0 1 0 8.26 0 a4.13 4.13 0 1 0 -8.26 0z" fill="black"></path><path d="M1860.37 874.5 a4.13 4.13 0 1 0 8.26 0 a4.13 4.13 0 1 0 -8.26 0zM1959.37 874.5 a4.13 4.13 0 1 0 8.26 0 a4.13 4.13 0 1 0 -8.26 0z" fill="black"></path><path d="M1596.37 280.5 a4.13 4.13 0 1 0 8.26 0 a4.13 4.13 0 1 0 -8.26 0zM1926.37 16.5 a4.13 4.13 0 1 0 8.26 0 a4.13 4.13 0 1 0 -8.26 0z" fill="black"></path><path d="M705.37 1039.5 a4.13 4.13 0 1 0 8.26 0 a4.13 4.13 0 1 0 -8.26 0zM1002.37 412.5 a4.13 4.13 0 1 0 8.26 0 a4.13 4.13 0 1 0 -8.26 0z" fill="black"></path><path d="M1035.37 808.5 a4.13 4.13 0 1 0 8.26 0 a4.13 4.13 0 1 0 -8.26 0zM1200.37 181.5 a4.13 4.13 0 1 0 8.26 0 a4.13 4.13 0 1 0 -8.26 0z" fill="black"></path><path d="M1563.37 544.5 a4.13 4.13 0 1 0 8.26 0 a4.13 4.13 0 1 0 -8.26 0zM1959.37 544.5 a4.13 4.13 0 1 0 8.26 0 a4.13 4.13 0 1 0 -8.26 0z" fill="black"></path><path d="M1134.37 841.5 a4.13 4.13 0 1 0 8.26 0 a4.13 4.13 0 1 0 -8.26 0zM1761.37 577.5 a4.13 4.13 0 1 0 8.26 0 a4.13 4.13 0 1 0 -8.26 0z" fill="black"></path><path d="M1101.37 412.5 a4.13 4.13 0 1 0 8.26 0 a4.13 4.13 0 1 0 -8.26 0zM1167.37 412.5 a4.13 4.13 0 1 0 8.26 0 a4.13 4.13 0 1 0 -8.26 0z" fill="black"></path><path d="M1365.37 511.5 a4.13 4.13 0 1 0 8.26 0 a4.13 4.13 0 1 0 -8.26 0zM1299.37 511.5 a4.13 4.13 0 1 0 8.26 0 a4.13 4.13 0 1 0 -8.26 0z" fill="black"></path><path d="M1464.37 775.5 a4.13 4.13 0 1 0 8.26 0 a4.13 4.13 0 1 0 -8.26 0zM1002.37 874.5 a4.13 4.13 0 1 0 8.26 0 a4.13 4.13 0 1 0 -8.26 0z" fill="black"></path><path d="M639.37 742.5 a4.13 4.13 0 1 0 8.26 0 a4.13 4.13 0 1 0 -8.26 0zM342.37 1072.5 a4.13 4.13 0 1 0 8.26 0 a4.13 4.13 0 1 0 -8.26 0z" fill="black"></path><path d="M276.37 577.5 a4.13 4.13 0 1 0 8.26 0 a4.13 4.13 0 1 0 -8.26 0zM111.37 1039.5 a4.13 4.13 0 1 0 8.26 0 a4.13 4.13 0 1 0 -8.26 0z" fill="black"></path><path d="M1398.37 874.5 a4.13 4.13 0 1 0 8.26 0 a4.13 4.13 0 1 0 -8.26 0zM1398.37 742.5 a4.13 4.13 0 1 0 8.26 0 a4.13 4.13 0 1 0 -8.26 0z" fill="black"></path><path d="M474.37 544.5 a4.13 4.13 0 1 0 8.26 0 a4.13 4.13 0 1 0 -8.26 0zM12.37 82.5 a4.13 4.13 0 1 0 8.26 0 a4.13 4.13 0 1 0 -8.26 0z" fill="black"></path><path d="M111.37 313.5 a4.13 4.13 0 1 0 8.26 0 a4.13 4.13 0 1 0 -8.26 0zM738.37 16.5 a4.13 4.13 0 1 0 8.26 0 a4.13 4.13 0 1 0 -8.26 0z" fill="black"></path><path d="M375.37 742.5 a4.13 4.13 0 1 0 8.26 0 a4.13 4.13 0 1 0 -8.26 0zM375.37 1039.5 a4.13 4.13 0 1 0 8.26 0 a4.13 4.13 0 1 0 -8.26 0z" fill="black"></path><path d="M540.37 478.5 a4.13 4.13 0 1 0 8.26 0 a4.13 4.13 0 1 0 -8.26 0zM342.37 148.5 a4.13 4.13 0 1 0 8.26 0 a4.13 4.13 0 1 0 -8.26 0z" fill="black"></path><path d="M1299.37 1006.5 a4.13 4.13 0 1 0 8.26 0 a4.13 4.13 0 1 0 -8.26 0zM1365.37 808.5 a4.13 4.13 0 1 0 8.26 0 a4.13 4.13 0 1 0 -8.26 0z" fill="black"></path><path d="M1431.37 346.5 a4.13 4.13 0 1 0 8.26 0 a4.13 4.13 0 1 0 -8.26 0zM1299.37 478.5 a4.13 4.13 0 1 0 8.26 0 a4.13 4.13 0 1 0 -8.26 0z" fill="black"></path><path d="M1629.37 775.5 a4.13 4.13 0 1 0 8.26 0 a4.13 4.13 0 1 0 -8.26 0zM1431.37 742.5 a4.13 4.13 0 1 0 8.26 0 a4.13 4.13 0 1 0 -8.26 0z" fill="black"></path><path d="M1068.37 379.5 a4.13 4.13 0 1 0 8.26 0 a4.13 4.13 0 1 0 -8.26 0zM1035.37 577.5 a4.13 4.13 0 1 0 8.26 0 a4.13 4.13 0 1 0 -8.26 0z" fill="black"></path><path d="M639.37 610.5 a4.13 4.13 0 1 0 8.26 0 a4.13 4.13 0 1 0 -8.26 0zM408.37 49.5 a4.13 4.13 0 1 0 8.26 0 a4.13 4.13 0 1 0 -8.26 0z" fill="black"></path><path d="M1299.37 973.5 a4.13 4.13 0 1 0 8.26 0 a4.13 4.13 0 1 0 -8.26 0zM1431.37 775.5 a4.13 4.13 0 1 0 8.26 0 a4.13 4.13 0 1 0 -8.26 0z" fill="black"></path><path d="M474.37 280.5 a4.13 4.13 0 1 0 8.26 0 a4.13 4.13 0 1 0 -8.26 0zM177.37 346.5 a4.13 4.13 0 1 0 8.26 0 a4.13 4.13 0 1 0 -8.26 0z" fill="black"></path><path d="M1629.37 709.5 a4.13 4.13 0 1 0 8.26 0 a4.13 4.13 0 1 0 -8.26 0zM1959.37 1072.5 a4.13 4.13 0 1 0 8.26 0 a4.13 4.13 0 1 0 -8.26 0z" fill="black"></path><path d="M1497.37 16.5 a4.13 4.13 0 1 0 8.26 0 a4.13 4.13 0 1 0 -8.26 0zM1365.37 643.5 a4.13 4.13 0 1 0 8.26 0 a4.13 4.13 0 1 0 -8.26 0z" fill="black"></path><path d="M177.37 643.5 a4.13 4.13 0 1 0 8.26 0 a4.13 4.13 0 1 0 -8.26 0zM12.37 280.5 a4.13 4.13 0 1 0 8.26 0 a4.13 4.13 0 1 0 -8.26 0z" fill="black"></path><path d="M1728.37 313.5 a4.13 4.13 0 1 0 8.26 0 a4.13 4.13 0 1 0 -8.26 0zM1926.37 49.5 a4.13 4.13 0 1 0 8.26 0 a4.13 4.13 0 1 0 -8.26 0z" fill="black"></path><path d="M1464.37 973.5 a4.13 4.13 0 1 0 8.26 0 a4.13 4.13 0 1 0 -8.26 0zM1662.37 775.5 a4.13 4.13 0 1 0 8.26 0 a4.13 4.13 0 1 0 -8.26 0z" fill="black"></path><path d="M1893.37 412.5 a4.13 4.13 0 1 0 8.26 0 a4.13 4.13 0 1 0 -8.26 0zM1695.37 511.5 a4.13 4.13 0 1 0 8.26 0 a4.13 4.13 0 1 0 -8.26 0z" fill="black"></path><path d="M1629.37 478.5 a4.13 4.13 0 1 0 8.26 0 a4.13 4.13 0 1 0 -8.26 0zM1530.37 379.5 a4.13 4.13 0 1 0 8.26 0 a4.13 4.13 0 1 0 -8.26 0z" fill="black"></path><path d="M1629.37 874.5 a4.13 4.13 0 1 0 8.26 0 a4.13 4.13 0 1 0 -8.26 0zM1926.37 1072.5 a4.13 4.13 0 1 0 8.26 0 a4.13 4.13 0 1 0 -8.26 0z" fill="black"></path><path d="M738.37 841.5 a4.13 4.13 0 1 0 8.26 0 a4.13 4.13 0 1 0 -8.26 0zM441.37 1039.5 a4.13 4.13 0 1 0 8.26 0 a4.13 4.13 0 1 0 -8.26 0z" fill="black"></path><path d="M1068.37 1006.5 a4.13 4.13 0 1 0 8.26 0 a4.13 4.13 0 1 0 -8.26 0zM1002.37 709.5 a4.13 4.13 0 1 0 8.26 0 a4.13 4.13 0 1 0 -8.26 0z" fill="black"></path><path d="M111.37 973.5 a4.13 4.13 0 1 0 8.26 0 a4.13 4.13 0 1 0 -8.26 0zM45.37 346.5 a4.13 4.13 0 1 0 8.26 0 a4.13 4.13 0 1 0 -8.26 0z" fill="black"></path><path d="M1695.37 1039.5 a4.13 4.13 0 1 0 8.26 0 a4.13 4.13 0 1 0 -8.26 0zM1893.37 1072.5 a4.13 4.13 0 1 0 8.26 0 a4.13 4.13 0 1 0 -8.26 0z" fill="black"></path><path d="M144.37 445.5 a4.13 4.13 0 1 0 8.26 0 a4.13 4.13 0 1 0 -8.26 0zM243.37 577.5 a4.13 4.13 0 1 0 8.26 0 a4.13 4.13 0 1 0 -8.26 0z" fill="black"></path><path d="M45.37 49.5 a4.13 4.13 0 1 0 8.26 0 a4.13 4.13 0 1 0 -8.26 0zM375.37 16.5 a4.13 4.13 0 1 0 8.26 0 a4.13 4.13 0 1 0 -8.26 0z" fill="black"></path><path d="M606.37 82.5 a4.13 4.13 0 1 0 8.26 0 a4.13 4.13 0 1 0 -8.26 0zM1233.37 82.5 a4.13 4.13 0 1 0 8.26 0 a4.13 4.13 0 1 0 -8.26 0z" fill="black"></path><path d="M837.37 940.5 a4.13 4.13 0 1 0 8.26 0 a4.13 4.13 0 1 0 -8.26 0zM1167.37 1072.5 a4.13 4.13 0 1 0 8.26 0 a4.13 4.13 0 1 0 -8.26 0z" fill="black"></path><path d="M1596.37 214.5 a4.13 4.13 0 1 0 8.26 0 a4.13 4.13 0 1 0 -8.26 0zM1662.37 16.5 a4.13 4.13 0 1 0 8.26 0 a4.13 4.13 0 1 0 -8.26 0z" fill="black"></path><path d="M837.37 280.5 a4.13 4.13 0 1 0 8.26 0 a4.13 4.13 0 1 0 -8.26 0zM837.37 115.5 a4.13 4.13 0 1 0 8.26 0 a4.13 4.13 0 1 0 -8.26 0z" fill="black"></path><path d="M1299.37 643.5 a4.13 4.13 0 1 0 8.26 0 a4.13 4.13 0 1 0 -8.26 0zM1299.37 16.5 a4.13 4.13 0 1 0 8.26 0 a4.13 4.13 0 1 0 -8.26 0z" fill="black"></path><path d="M1761.37 973.5 a4.13 4.13 0 1 0 8.26 0 a4.13 4.13 0 1 0 -8.26 0zM1365.37 1072.5 a4.13 4.13 0 1 0 8.26 0 a4.13 4.13 0 1 0 -8.26 0z" fill="black"></path><path d="M1959.37 610.5 a4.13 4.13 0 1 0 8.26 0 a4.13 4.13 0 1 0 -8.26 0zM1959.37 841.5 a4.13 4.13 0 1 0 8.26 0 a4.13 4.13 0 1 0 -8.26 0z" fill="black"></path><path d="M1629.37 412.5 a4.13 4.13 0 1 0 8.26 0 a4.13 4.13 0 1 0 -8.26 0zM1629.37 16.5 a4.13 4.13 0 1 0 8.26 0 a4.13 4.13 0 1 0 -8.26 0z" fill="black"></path><path d="M1200.37 643.5 a4.13 4.13 0 1 0 8.26 0 a4.13 4.13 0 1 0 -8.26 0zM1068.37 643.5 a4.13 4.13 0 1 0 8.26 0 a4.13 4.13 0 1 0 -8.26 0z" fill="black"></path><path d="M573.37 940.5 a4.13 4.13 0 1 0 8.26 0 a4.13 4.13 0 1 0 -8.26 0zM474.37 1039.5 a4.13 4.13 0 1 0 8.26 0 a4.13 4.13 0 1 0 -8.26 0z" fill="black"></path><path d="M1893.37 82.5 a4.13 4.13 0 1 0 8.26 0 a4.13 4.13 0 1 0 -8.26 0zM1794.37 214.5 a4.13 4.13 0 1 0 8.26 0 a4.13 4.13 0 1 0 -8.26 0z" fill="black"></path><path d="M45.37 973.5 a4.13 4.13 0 1 0 8.26 0 a4.13 4.13 0 1 0 -8.26 0zM243.37 1039.5 a4.13 4.13 0 1 0 8.26 0 a4.13 4.13 0 1 0 -8.26 0z" fill="black"></path><path d="M12.37 775.5 a4.13 4.13 0 1 0 8.26 0 a4.13 4.13 0 1 0 -8.26 0zM78.37 577.5 a4.13 4.13 0 1 0 8.26 0 a4.13 4.13 0 1 0 -8.26 0z" fill="black"></path><path d="M408.37 940.5 a4.13 4.13 0 1 0 8.26 0 a4.13 4.13 0 1 0 -8.26 0zM870.37 379.5 a4.13 4.13 0 1 0 8.26 0 a4.13 4.13 0 1 0 -8.26 0z" fill="black"></path><path d="M507.37 676.5 a4.13 4.13 0 1 0 8.26 0 a4.13 4.13 0 1 0 -8.26 0zM309.37 676.5 a4.13 4.13 0 1 0 8.26 0 a4.13 4.13 0 1 0 -8.26 0z" fill="black"></path><path d="M78.37 214.5 a4.13 4.13 0 1 0 8.26 0 a4.13 4.13 0 1 0 -8.26 0zM78.37 16.5 a4.13 4.13 0 1 0 8.26 0 a4.13 4.13 0 1 0 -8.26 0z" fill="black"></path><path d="M936.37 478.5 a4.13 4.13 0 1 0 8.26 0 a4.13 4.13 0 1 0 -8.26 0zM903.37 115.5 a4.13 4.13 0 1 0 8.26 0 a4.13 4.13 0 1 0 -8.26 0z" fill="black"></path><path d="M1398.37 247.5 a4.13 4.13 0 1 0 8.26 0 a4.13 4.13 0 1 0 -8.26 0zM1299.37 247.5 a4.13 4.13 0 1 0 8.26 0 a4.13 4.13 0 1 0 -8.26 0z" fill="black"></path><path d="M1629.37 82.5 a4.13 4.13 0 1 0 8.26 0 a4.13 4.13 0 1 0 -8.26 0zM1662.37 511.5 a4.13 4.13 0 1 0 8.26 0 a4.13 4.13 0 1 0 -8.26 0z" fill="black"></path><path d="M1365.37 907.5 a4.13 4.13 0 1 0 8.26 0 a4.13 4.13 0 1 0 -8.26 0zM1365.37 973.5 a4.13 4.13 0 1 0 8.26 0 a4.13 4.13 0 1 0 -8.26 0z" fill="black"></path><path d="M1068.37 478.5 a4.13 4.13 0 1 0 8.26 0 a4.13 4.13 0 1 0 -8.26 0zM1068.37 544.5 a4.13 4.13 0 1 0 8.26 0 a4.13 4.13 0 1 0 -8.26 0z" fill="black"></path><path d="M1101.37 247.5 a4.13 4.13 0 1 0 8.26 0 a4.13 4.13 0 1 0 -8.26 0zM1101.37 115.5 a4.13 4.13 0 1 0 8.26 0 a4.13 4.13 0 1 0 -8.26 0z" fill="black"></path><path d="M540.37 379.5 a4.13 4.13 0 1 0 8.26 0 a4.13 4.13 0 1 0 -8.26 0zM375.37 82.5 a4.13 4.13 0 1 0 8.26 0 a4.13 4.13 0 1 0 -8.26 0z" fill="black"></path><path d="M1332.37 280.5 a4.13 4.13 0 1 0 8.26 0 a4.13 4.13 0 1 0 -8.26 0zM1431.37 280.5 a4.13 4.13 0 1 0 8.26 0 a4.13 4.13 0 1 0 -8.26 0z" fill="black"></path><path d="M1200.37 676.5 a4.13 4.13 0 1 0 8.26 0 a4.13 4.13 0 1 0 -8.26 0zM969.37 841.5 a4.13 4.13 0 1 0 8.26 0 a4.13 4.13 0 1 0 -8.26 0z" fill="black"></path><path d="M177.37 577.5 a4.13 4.13 0 1 0 8.26 0 a4.13 4.13 0 1 0 -8.26 0zM12.37 808.5 a4.13 4.13 0 1 0 8.26 0 a4.13 4.13 0 1 0 -8.26 0z" fill="black"></path><path d="M672.37 280.5 a4.13 4.13 0 1 0 8.26 0 a4.13 4.13 0 1 0 -8.26 0zM672.37 577.5 a4.13 4.13 0 1 0 8.26 0 a4.13 4.13 0 1 0 -8.26 0z" fill="black"></path><path d="M1365.37 346.5 a4.13 4.13 0 1 0 8.26 0 a4.13 4.13 0 1 0 -8.26 0zM1431.37 313.5 a4.13 4.13 0 1 0 8.26 0 a4.13 4.13 0 1 0 -8.26 0z" fill="black"></path><path d="M1530.37 544.5 a4.13 4.13 0 1 0 8.26 0 a4.13 4.13 0 1 0 -8.26 0zM1497.37 676.5 a4.13 4.13 0 1 0 8.26 0 a4.13 4.13 0 1 0 -8.26 0z" fill="black"></path><path d="M1101.37 379.5 a4.13 4.13 0 1 0 8.26 0 a4.13 4.13 0 1 0 -8.26 0zM1167.37 379.5 a4.13 4.13 0 1 0 8.26 0 a4.13 4.13 0 1 0 -8.26 0z" fill="black"></path><path d="M1035.37 115.5 a4.13 4.13 0 1 0 8.26 0 a4.13 4.13 0 1 0 -8.26 0zM903.37 742.5 a4.13 4.13 0 1 0 8.26 0 a4.13 4.13 0 1 0 -8.26 0z" fill="black"></path><path d="M441.37 973.5 a4.13 4.13 0 1 0 8.26 0 a4.13 4.13 0 1 0 -8.26 0zM903.37 478.5 a4.13 4.13 0 1 0 8.26 0 a4.13 4.13 0 1 0 -8.26 0z" fill="black"></path><path d="M144.37 874.5 a4.13 4.13 0 1 0 8.26 0 a4.13 4.13 0 1 0 -8.26 0zM12.37 841.5 a4.13 4.13 0 1 0 8.26 0 a4.13 4.13 0 1 0 -8.26 0z" fill="black"></path><path d="M771.37 808.5 a4.13 4.13 0 1 0 8.26 0 a4.13 4.13 0 1 0 -8.26 0zM870.37 808.5 a4.13 4.13 0 1 0 8.26 0 a4.13 4.13 0 1 0 -8.26 0z" fill="black"></path><path d="M507.37 742.5 a4.13 4.13 0 1 0 8.26 0 a4.13 4.13 0 1 0 -8.26 0zM408.37 841.5 a4.13 4.13 0 1 0 8.26 0 a4.13 4.13 0 1 0 -8.26 0z" fill="black"></path><path d="M144.37 577.5 a4.13 4.13 0 1 0 8.26 0 a4.13 4.13 0 1 0 -8.26 0zM45.37 445.5 a4.13 4.13 0 1 0 8.26 0 a4.13 4.13 0 1 0 -8.26 0z" fill="black"></path><path d="M903.37 577.5 a4.13 4.13 0 1 0 8.26 0 a4.13 4.13 0 1 0 -8.26 0zM606.37 940.5 a4.13 4.13 0 1 0 8.26 0 a4.13 4.13 0 1 0 -8.26 0z" fill="black"></path><path d="M243.37 1006.5 a4.13 4.13 0 1 0 8.26 0 a4.13 4.13 0 1 0 -8.26 0zM144.37 1006.5 a4.13 4.13 0 1 0 8.26 0 a4.13 4.13 0 1 0 -8.26 0z" fill="black"></path><path d="M606.37 577.5 a4.13 4.13 0 1 0 8.26 0 a4.13 4.13 0 1 0 -8.26 0zM177.37 445.5 a4.13 4.13 0 1 0 8.26 0 a4.13 4.13 0 1 0 -8.26 0z" fill="black"></path><path d="M738.37 1072.5 a4.13 4.13 0 1 0 8.26 0 a4.13 4.13 0 1 0 -8.26 0zM936.37 1072.5 a4.13 4.13 0 1 0 8.26 0 a4.13 4.13 0 1 0 -8.26 0z" fill="black"></path><path d="M1860.37 115.5 a4.13 4.13 0 1 0 8.26 0 a4.13 4.13 0 1 0 -8.26 0zM1761.37 115.5 a4.13 4.13 0 1 0 8.26 0 a4.13 4.13 0 1 0 -8.26 0z" fill="black"></path><path d="M1002.37 742.5 a4.13 4.13 0 1 0 8.26 0 a4.13 4.13 0 1 0 -8.26 0zM969.37 808.5 a4.13 4.13 0 1 0 8.26 0 a4.13 4.13 0 1 0 -8.26 0z" fill="black"></path><path d="M606.37 214.5 a4.13 4.13 0 1 0 8.26 0 a4.13 4.13 0 1 0 -8.26 0zM441.37 49.5 a4.13 4.13 0 1 0 8.26 0 a4.13 4.13 0 1 0 -8.26 0z" fill="black"></path><path d="M1365.37 379.5 a4.13 4.13 0 1 0 8.26 0 a4.13 4.13 0 1 0 -8.26 0zM1299.37 445.5 a4.13 4.13 0 1 0 8.26 0 a4.13 4.13 0 1 0 -8.26 0z" fill="black"></path><path d="M771.37 841.5 a4.13 4.13 0 1 0 8.26 0 a4.13 4.13 0 1 0 -8.26 0zM540.37 1072.5 a4.13 4.13 0 1 0 8.26 0 a4.13 4.13 0 1 0 -8.26 0z" fill="black"></path><path d="M672.37 511.5 a4.13 4.13 0 1 0 8.26 0 a4.13 4.13 0 1 0 -8.26 0zM672.37 313.5 a4.13 4.13 0 1 0 8.26 0 a4.13 4.13 0 1 0 -8.26 0z" fill="black"></path><path d="M837.37 1006.5 a4.13 4.13 0 1 0 8.26 0 a4.13 4.13 0 1 0 -8.26 0zM903.37 1039.5 a4.13 4.13 0 1 0 8.26 0 a4.13 4.13 0 1 0 -8.26 0z" fill="black"></path><path d="M1035.37 1006.5 a4.13 4.13 0 1 0 8.26 0 a4.13 4.13 0 1 0 -8.26 0zM903.37 874.5 a4.13 4.13 0 1 0 8.26 0 a4.13 4.13 0 1 0 -8.26 0z" fill="black"></path><path d="M243.37 313.5 a4.13 4.13 0 1 0 8.26 0 a4.13 4.13 0 1 0 -8.26 0zM375.37 115.5 a4.13 4.13 0 1 0 8.26 0 a4.13 4.13 0 1 0 -8.26 0z" fill="black"></path><path d="M606.37 445.5 a4.13 4.13 0 1 0 8.26 0 a4.13 4.13 0 1 0 -8.26 0zM606.37 544.5 a4.13 4.13 0 1 0 8.26 0 a4.13 4.13 0 1 0 -8.26 0z" fill="black"></path><path d="M111.37 214.5 a4.13 4.13 0 1 0 8.26 0 a4.13 4.13 0 1 0 -8.26 0zM111.37 16.5 a4.13 4.13 0 1 0 8.26 0 a4.13 4.13 0 1 0 -8.26 0z" fill="black"></path><path d="M606.37 148.5 a4.13 4.13 0 1 0 8.26 0 a4.13 4.13 0 1 0 -8.26 0zM474.37 49.5 a4.13 4.13 0 1 0 8.26 0 a4.13 4.13 0 1 0 -8.26 0z" fill="black"></path><path d="M177.37 907.5 a4.13 4.13 0 1 0 8.26 0 a4.13 4.13 0 1 0 -8.26 0zM144.37 973.5 a4.13 4.13 0 1 0 8.26 0 a4.13 4.13 0 1 0 -8.26 0z" fill="black"></path><path d="M1728.37 907.5 a4.13 4.13 0 1 0 8.26 0 a4.13 4.13 0 1 0 -8.26 0zM1893.37 1039.5 a4.13 4.13 0 1 0 8.26 0 a4.13 4.13 0 1 0 -8.26 0z" fill="black"></path><path d="M1827.37 808.5 a4.13 4.13 0 1 0 8.26 0 a4.13 4.13 0 1 0 -8.26 0zM1926.37 577.5 a4.13 4.13 0 1 0 8.26 0 a4.13 4.13 0 1 0 -8.26 0z" fill="black"></path><path d="M804.37 775.5 a4.13 4.13 0 1 0 8.26 0 a4.13 4.13 0 1 0 -8.26 0zM936.37 511.5 a4.13 4.13 0 1 0 8.26 0 a4.13 4.13 0 1 0 -8.26 0z" fill="black"></path><path d="M177.37 115.5 a4.13 4.13 0 1 0 8.26 0 a4.13 4.13 0 1 0 -8.26 0zM144.37 214.5 a4.13 4.13 0 1 0 8.26 0 a4.13 4.13 0 1 0 -8.26 0z" fill="black"></path><path d="M1860.37 577.5 a4.13 4.13 0 1 0 8.26 0 a4.13 4.13 0 1 0 -8.26 0zM1629.37 676.5 a4.13 4.13 0 1 0 8.26 0 a4.13 4.13 0 1 0 -8.26 0z" fill="black"></path><path d="M408.37 181.5 a4.13 4.13 0 1 0 8.26 0 a4.13 4.13 0 1 0 -8.26 0zM276.37 313.5 a4.13 4.13 0 1 0 8.26 0 a4.13 4.13 0 1 0 -8.26 0z" fill="black"></path><path d="M441.37 247.5 a4.13 4.13 0 1 0 8.26 0 a4.13 4.13 0 1 0 -8.26 0zM507.37 247.5 a4.13 4.13 0 1 0 8.26 0 a4.13 4.13 0 1 0 -8.26 0z" fill="black"></path><path d="M1695.37 610.5 a4.13 4.13 0 1 0 8.26 0 a4.13 4.13 0 1 0 -8.26 0zM1761.37 610.5 a4.13 4.13 0 1 0 8.26 0 a4.13 4.13 0 1 0 -8.26 0z" fill="black"></path><path d="M210.37 49.5 a4.13 4.13 0 1 0 8.26 0 a4.13 4.13 0 1 0 -8.26 0zM144.37 181.5 a4.13 4.13 0 1 0 8.26 0 a4.13 4.13 0 1 0 -8.26 0z" fill="black"></path><path d="M969.37 1006.5 a4.13 4.13 0 1 0 8.26 0 a4.13 4.13 0 1 0 -8.26 0zM870.37 907.5 a4.13 4.13 0 1 0 8.26 0 a4.13 4.13 0 1 0 -8.26 0z" fill="black"></path><path d="M1629.37 346.5 a4.13 4.13 0 1 0 8.26 0 a4.13 4.13 0 1 0 -8.26 0zM1761.37 214.5 a4.13 4.13 0 1 0 8.26 0 a4.13 4.13 0 1 0 -8.26 0z" fill="black"></path><path d="M1827.37 280.5 a4.13 4.13 0 1 0 8.26 0 a4.13 4.13 0 1 0 -8.26 0zM1827.37 511.5 a4.13 4.13 0 1 0 8.26 0 a4.13 4.13 0 1 0 -8.26 0z" fill="black"></path><path d="M1101.37 1039.5 a4.13 4.13 0 1 0 8.26 0 a4.13 4.13 0 1 0 -8.26 0zM969.37 1039.5 a4.13 4.13 0 1 0 8.26 0 a4.13 4.13 0 1 0 -8.26 0z" fill="black"></path><path d="M1893.37 709.5 a4.13 4.13 0 1 0 8.26 0 a4.13 4.13 0 1 0 -8.26 0zM1893.37 676.5 a4.13 4.13 0 1 0 8.26 0 a4.13 4.13 0 1 0 -8.26 0z" fill="black"></path><path d="M1959.37 511.5 a4.13 4.13 0 1 0 8.26 0 a4.13 4.13 0 1 0 -8.26 0zM1860.37 511.5 a4.13 4.13 0 1 0 8.26 0 a4.13 4.13 0 1 0 -8.26 0z" fill="black"></path><path d="M1299.37 577.5 a4.13 4.13 0 1 0 8.26 0 a4.13 4.13 0 1 0 -8.26 0zM1365.37 544.5 a4.13 4.13 0 1 0 8.26 0 a4.13 4.13 0 1 0 -8.26 0z" fill="black"></path><path d="M375.37 313.5 a4.13 4.13 0 1 0 8.26 0 a4.13 4.13 0 1 0 -8.26 0zM441.37 280.5 a4.13 4.13 0 1 0 8.26 0 a4.13 4.13 0 1 0 -8.26 0z" fill="black"></path><path d="M771.37 181.5 a4.13 4.13 0 1 0 8.26 0 a4.13 4.13 0 1 0 -8.26 0zM738.37 313.5 a4.13 4.13 0 1 0 8.26 0 a4.13 4.13 0 1 0 -8.26 0z" fill="black"></path><path d="M1959.37 379.5 a4.13 4.13 0 1 0 8.26 0 a4.13 4.13 0 1 0 -8.26 0zM1893.37 214.5 a4.13 4.13 0 1 0 8.26 0 a4.13 4.13 0 1 0 -8.26 0z" fill="black"></path><path d="M1860.37 280.5 a4.13 4.13 0 1 0 8.26 0 a4.13 4.13 0 1 0 -8.26 0zM1860.37 478.5 a4.13 4.13 0 1 0 8.26 0 a4.13 4.13 0 1 0 -8.26 0z" fill="black"></path><path d="M1728.37 1006.5 a4.13 4.13 0 1 0 8.26 0 a4.13 4.13 0 1 0 -8.26 0zM1431.37 1072.5 a4.13 4.13 0 1 0 8.26 0 a4.13 4.13 0 1 0 -8.26 0z" fill="black"></path><path d="M1662.37 1072.5 a4.13 4.13 0 1 0 8.26 0 a4.13 4.13 0 1 0 -8.26 0zM1563.37 973.5 a4.13 4.13 0 1 0 8.26 0 a4.13 4.13 0 1 0 -8.26 0z" fill="black"></path><path d="M507.37 346.5 a4.13 4.13 0 1 0 8.26 0 a4.13 4.13 0 1 0 -8.26 0zM441.37 346.5 a4.13 4.13 0 1 0 8.26 0 a4.13 4.13 0 1 0 -8.26 0z" fill="black"></path><path d="M1134.37 346.5 a4.13 4.13 0 1 0 8.26 0 a4.13 4.13 0 1 0 -8.26 0zM969.37 214.5 a4.13 4.13 0 1 0 8.26 0 a4.13 4.13 0 1 0 -8.26 0z" fill="black"></path><path d="M1662.37 247.5 a4.13 4.13 0 1 0 8.26 0 a4.13 4.13 0 1 0 -8.26 0zM1596.37 313.5 a4.13 4.13 0 1 0 8.26 0 a4.13 4.13 0 1 0 -8.26 0z" fill="black"></path><path d="M507.37 841.5 a4.13 4.13 0 1 0 8.26 0 a4.13 4.13 0 1 0 -8.26 0zM441.37 940.5 a4.13 4.13 0 1 0 8.26 0 a4.13 4.13 0 1 0 -8.26 0z" fill="black"></path><path d="M78.37 346.5 a4.13 4.13 0 1 0 8.26 0 a4.13 4.13 0 1 0 -8.26 0zM111.37 445.5 a4.13 4.13 0 1 0 8.26 0 a4.13 4.13 0 1 0 -8.26 0z" fill="black"></path><path d="M309.37 808.5 a4.13 4.13 0 1 0 8.26 0 a4.13 4.13 0 1 0 -8.26 0zM309.37 709.5 a4.13 4.13 0 1 0 8.26 0 a4.13 4.13 0 1 0 -8.26 0z" fill="black"></path><path d="M1893.37 49.5 a4.13 4.13 0 1 0 8.26 0 a4.13 4.13 0 1 0 -8.26 0zM1794.37 49.5 a4.13 4.13 0 1 0 8.26 0 a4.13 4.13 0 1 0 -8.26 0z" fill="black"></path><path d="M573.37 379.5 a4.13 4.13 0 1 0 8.26 0 a4.13 4.13 0 1 0 -8.26 0zM573.37 280.5 a4.13 4.13 0 1 0 8.26 0 a4.13 4.13 0 1 0 -8.26 0z" fill="black"></path><path d="M441.37 643.5 a4.13 4.13 0 1 0 8.26 0 a4.13 4.13 0 1 0 -8.26 0zM606.37 610.5 a4.13 4.13 0 1 0 8.26 0 a4.13 4.13 0 1 0 -8.26 0z" fill="black"></path><path d="M738.37 907.5 a4.13 4.13 0 1 0 8.26 0 a4.13 4.13 0 1 0 -8.26 0zM573.37 1072.5 a4.13 4.13 0 1 0 8.26 0 a4.13 4.13 0 1 0 -8.26 0z" fill="black"></path><path d="M804.37 280.5 a4.13 4.13 0 1 0 8.26 0 a4.13 4.13 0 1 0 -8.26 0zM837.37 478.5 a4.13 4.13 0 1 0 8.26 0 a4.13 4.13 0 1 0 -8.26 0z" fill="black"></path><path d="M870.37 841.5 a4.13 4.13 0 1 0 8.26 0 a4.13 4.13 0 1 0 -8.26 0zM771.37 940.5 a4.13 4.13 0 1 0 8.26 0 a4.13 4.13 0 1 0 -8.26 0z" fill="black"></path><path d="M738.37 709.5 a4.13 4.13 0 1 0 8.26 0 a4.13 4.13 0 1 0 -8.26 0zM903.37 610.5 a4.13 4.13 0 1 0 8.26 0 a4.13 4.13 0 1 0 -8.26 0z" fill="black"></path><path d="M1233.37 973.5 a4.13 4.13 0 1 0 8.26 0 a4.13 4.13 0 1 0 -8.26 0zM1035.37 874.5 a4.13 4.13 0 1 0 8.26 0 a4.13 4.13 0 1 0 -8.26 0z" fill="black"></path><path d="M1530.37 874.5 a4.13 4.13 0 1 0 8.26 0 a4.13 4.13 0 1 0 -8.26 0zM1596.37 808.5 a4.13 4.13 0 1 0 8.26 0 a4.13 4.13 0 1 0 -8.26 0z" fill="black"></path><path d="M375.37 445.5 a4.13 4.13 0 1 0 8.26 0 a4.13 4.13 0 1 0 -8.26 0zM573.37 544.5 a4.13 4.13 0 1 0 8.26 0 a4.13 4.13 0 1 0 -8.26 0z" fill="black"></path><path d="M342.37 775.5 a4.13 4.13 0 1 0 8.26 0 a4.13 4.13 0 1 0 -8.26 0zM573.37 676.5 a4.13 4.13 0 1 0 8.26 0 a4.13 4.13 0 1 0 -8.26 0z" fill="black"></path><path d="M1431.37 82.5 a4.13 4.13 0 1 0 8.26 0 a4.13 4.13 0 1 0 -8.26 0zM1464.37 16.5 a4.13 4.13 0 1 0 8.26 0 a4.13 4.13 0 1 0 -8.26 0z" fill="black"></path><path d="M1959.37 478.5 a4.13 4.13 0 1 0 8.26 0 a4.13 4.13 0 1 0 -8.26 0zM1926.37 379.5 a4.13 4.13 0 1 0 8.26 0 a4.13 4.13 0 1 0 -8.26 0z" fill="black"></path><path d="M276.37 49.5 a4.13 4.13 0 1 0 8.26 0 a4.13 4.13 0 1 0 -8.26 0zM342.37 16.5 a4.13 4.13 0 1 0 8.26 0 a4.13 4.13 0 1 0 -8.26 0z" fill="black"></path><path d="M705.37 280.5 a4.13 4.13 0 1 0 8.26 0 a4.13 4.13 0 1 0 -8.26 0zM540.37 148.5 a4.13 4.13 0 1 0 8.26 0 a4.13 4.13 0 1 0 -8.26 0z" fill="black"></path><path d="M1233.37 907.5 a4.13 4.13 0 1 0 8.26 0 a4.13 4.13 0 1 0 -8.26 0zM1332.37 841.5 a4.13 4.13 0 1 0 8.26 0 a4.13 4.13 0 1 0 -8.26 0z" fill="black"></path><path d="M1266.37 82.5 a4.13 4.13 0 1 0 8.26 0 a4.13 4.13 0 1 0 -8.26 0zM1167.37 16.5 a4.13 4.13 0 1 0 8.26 0 a4.13 4.13 0 1 0 -8.26 0z" fill="black"></path><path d="M771.37 478.5 a4.13 4.13 0 1 0 8.26 0 a4.13 4.13 0 1 0 -8.26 0zM672.37 544.5 a4.13 4.13 0 1 0 8.26 0 a4.13 4.13 0 1 0 -8.26 0z" fill="black"></path><path d="M1200.37 1006.5 a4.13 4.13 0 1 0 8.26 0 a4.13 4.13 0 1 0 -8.26 0zM1101.37 940.5 a4.13 4.13 0 1 0 8.26 0 a4.13 4.13 0 1 0 -8.26 0z" fill="black"></path><path d="M1959.37 280.5 a4.13 4.13 0 1 0 8.26 0 a4.13 4.13 0 1 0 -8.26 0zM1959.37 148.5 a4.13 4.13 0 1 0 8.26 0 a4.13 4.13 0 1 0 -8.26 0z" fill="black"></path><path d="M1332.37 148.5 a4.13 4.13 0 1 0 8.26 0 a4.13 4.13 0 1 0 -8.26 0zM1332.37 214.5 a4.13 4.13 0 1 0 8.26 0 a4.13 4.13 0 1 0 -8.26 0z" fill="black"></path><path d="M1200.37 148.5 a4.13 4.13 0 1 0 8.26 0 a4.13 4.13 0 1 0 -8.26 0zM1134.37 115.5 a4.13 4.13 0 1 0 8.26 0 a4.13 4.13 0 1 0 -8.26 0z" fill="black"></path><path d="M1860.37 709.5 a4.13 4.13 0 1 0 8.26 0 a4.13 4.13 0 1 0 -8.26 0zM1761.37 775.5 a4.13 4.13 0 1 0 8.26 0 a4.13 4.13 0 1 0 -8.26 0z" fill="black"></path><path d="M177.37 709.5 a4.13 4.13 0 1 0 8.26 0 a4.13 4.13 0 1 0 -8.26 0zM111.37 610.5 a4.13 4.13 0 1 0 8.26 0 a4.13 4.13 0 1 0 -8.26 0z" fill="black"></path><path d="M342.37 610.5 a4.13 4.13 0 1 0 8.26 0 a4.13 4.13 0 1 0 -8.26 0zM474.37 610.5 a4.13 4.13 0 1 0 8.26 0 a4.13 4.13 0 1 0 -8.26 0z" fill="black"></path><path d="M12.37 973.5 a4.13 4.13 0 1 0 8.26 0 a4.13 4.13 0 1 0 -8.26 0zM111.37 1072.5 a4.13 4.13 0 1 0 8.26 0 a4.13 4.13 0 1 0 -8.26 0z" fill="black"></path><path d="M705.37 148.5 a4.13 4.13 0 1 0 8.26 0 a4.13 4.13 0 1 0 -8.26 0zM606.37 115.5 a4.13 4.13 0 1 0 8.26 0 a4.13 4.13 0 1 0 -8.26 0z" fill="black"></path><path d="M1068.37 115.5 a4.13 4.13 0 1 0 8.26 0 a4.13 4.13 0 1 0 -8.26 0zM1002.37 181.5 a4.13 4.13 0 1 0 8.26 0 a4.13 4.13 0 1 0 -8.26 0z" fill="black"></path><path d="M78.37 742.5 a4.13 4.13 0 1 0 8.26 0 a4.13 4.13 0 1 0 -8.26 0zM45.37 808.5 a4.13 4.13 0 1 0 8.26 0 a4.13 4.13 0 1 0 -8.26 0z" fill="black"></path><path d="M1596.37 511.5 a4.13 4.13 0 1 0 8.26 0 a4.13 4.13 0 1 0 -8.26 0zM1530.37 412.5 a4.13 4.13 0 1 0 8.26 0 a4.13 4.13 0 1 0 -8.26 0z" fill="black"></path><path d="M837.37 346.5 a4.13 4.13 0 1 0 8.26 0 a4.13 4.13 0 1 0 -8.26 0zM870.37 115.5 a4.13 4.13 0 1 0 8.26 0 a4.13 4.13 0 1 0 -8.26 0z" fill="black"></path><path d="M771.37 676.5 a4.13 4.13 0 1 0 8.26 0 a4.13 4.13 0 1 0 -8.26 0zM870.37 610.5 a4.13 4.13 0 1 0 8.26 0 a4.13 4.13 0 1 0 -8.26 0z" fill="black"></path><path d="M144.37 742.5 a4.13 4.13 0 1 0 8.26 0 a4.13 4.13 0 1 0 -8.26 0zM111.37 643.5 a4.13 4.13 0 1 0 8.26 0 a4.13 4.13 0 1 0 -8.26 0z" fill="black"></path><path d="M1398.37 148.5 a4.13 4.13 0 1 0 8.26 0 a4.13 4.13 0 1 0 -8.26 0zM1233.37 16.5 a4.13 4.13 0 1 0 8.26 0 a4.13 4.13 0 1 0 -8.26 0z" fill="black"></path><path d="M1101.37 577.5 a4.13 4.13 0 1 0 8.26 0 a4.13 4.13 0 1 0 -8.26 0zM1200.37 544.5 a4.13 4.13 0 1 0 8.26 0 a4.13 4.13 0 1 0 -8.26 0z" fill="black"></path><path d="M1002.37 379.5 a4.13 4.13 0 1 0 8.26 0 a4.13 4.13 0 1 0 -8.26 0zM969.37 445.5 a4.13 4.13 0 1 0 8.26 0 a4.13 4.13 0 1 0 -8.26 0z" fill="black"></path><path d="M738.37 445.5 a4.13 4.13 0 1 0 8.26 0 a4.13 4.13 0 1 0 -8.26 0zM705.37 346.5 a4.13 4.13 0 1 0 8.26 0 a4.13 4.13 0 1 0 -8.26 0z" fill="black"></path><path d="M1794.37 643.5 a4.13 4.13 0 1 0 8.26 0 a4.13 4.13 0 1 0 -8.26 0zM1893.37 610.5 a4.13 4.13 0 1 0 8.26 0 a4.13 4.13 0 1 0 -8.26 0z" fill="black"></path><path d="M1365.37 49.5 a4.13 4.13 0 1 0 8.26 0 a4.13 4.13 0 1 0 -8.26 0zM1431.37 49.5 a4.13 4.13 0 1 0 8.26 0 a4.13 4.13 0 1 0 -8.26 0z" fill="black"></path><path d="M1596.37 643.5 a4.13 4.13 0 1 0 8.26 0 a4.13 4.13 0 1 0 -8.26 0zM1662.37 577.5 a4.13 4.13 0 1 0 8.26 0 a4.13 4.13 0 1 0 -8.26 0z" fill="black"></path><path d="M738.37 148.5 a4.13 4.13 0 1 0 8.26 0 a4.13 4.13 0 1 0 -8.26 0zM639.37 115.5 a4.13 4.13 0 1 0 8.26 0 a4.13 4.13 0 1 0 -8.26 0z" fill="black"></path><path d="M1926.37 940.5 a4.13 4.13 0 1 0 8.26 0 a4.13 4.13 0 1 0 -8.26 0zM1860.37 907.5 a4.13 4.13 0 1 0 8.26 0 a4.13 4.13 0 1 0 -8.26 0z" fill="black"></path><path d="M1695.37 313.5 a4.13 4.13 0 1 0 8.26 0 a4.13 4.13 0 1 0 -8.26 0zM1662.37 379.5 a4.13 4.13 0 1 0 8.26 0 a4.13 4.13 0 1 0 -8.26 0z" fill="black"></path><path d="M1794.37 445.5 a4.13 4.13 0 1 0 8.26 0 a4.13 4.13 0 1 0 -8.26 0zM1728.37 412.5 a4.13 4.13 0 1 0 8.26 0 a4.13 4.13 0 1 0 -8.26 0z" fill="black"></path><path d="M1167.37 181.5 a4.13 4.13 0 1 0 8.26 0 a4.13 4.13 0 1 0 -8.26 0zM1167.37 313.5 a4.13 4.13 0 1 0 8.26 0 a4.13 4.13 0 1 0 -8.26 0z" fill="black"></path><path d="M309.37 412.5 a4.13 4.13 0 1 0 8.26 0 a4.13 4.13 0 1 0 -8.26 0zM441.37 412.5 a4.13 4.13 0 1 0 8.26 0 a4.13 4.13 0 1 0 -8.26 0z" fill="black"></path><path d="M177.37 742.5 a4.13 4.13 0 1 0 8.26 0 a4.13 4.13 0 1 0 -8.26 0zM78.37 808.5 a4.13 4.13 0 1 0 8.26 0 a4.13 4.13 0 1 0 -8.26 0z" fill="black"></path><path d="M309.37 280.5 a4.13 4.13 0 1 0 8.26 0 a4.13 4.13 0 1 0 -8.26 0zM408.37 280.5 a4.13 4.13 0 1 0 8.26 0 a4.13 4.13 0 1 0 -8.26 0z" fill="black"></path><path d="M804.37 676.5 a4.13 4.13 0 1 0 8.26 0 a4.13 4.13 0 1 0 -8.26 0zM870.37 643.5 a4.13 4.13 0 1 0 8.26 0 a4.13 4.13 0 1 0 -8.26 0z" fill="black"></path><path d="M1431.37 643.5 a4.13 4.13 0 1 0 8.26 0 a4.13 4.13 0 1 0 -8.26 0zM1497.37 544.5 a4.13 4.13 0 1 0 8.26 0 a4.13 4.13 0 1 0 -8.26 0z" fill="black"></path><path d="M1035.37 280.5 a4.13 4.13 0 1 0 8.26 0 a4.13 4.13 0 1 0 -8.26 0zM1035.37 379.5 a4.13 4.13 0 1 0 8.26 0 a4.13 4.13 0 1 0 -8.26 0z" fill="black"></path><path d="M1860.37 1039.5 a4.13 4.13 0 1 0 8.26 0 a4.13 4.13 0 1 0 -8.26 0zM1728.37 1039.5 a4.13 4.13 0 1 0 8.26 0 a4.13 4.13 0 1 0 -8.26 0z" fill="black"></path><path d="M1893.37 643.5 a4.13 4.13 0 1 0 8.26 0 a4.13 4.13 0 1 0 -8.26 0zM1827.37 643.5 a4.13 4.13 0 1 0 8.26 0 a4.13 4.13 0 1 0 -8.26 0z" fill="black"></path><path d="M1761.37 412.5 a4.13 4.13 0 1 0 8.26 0 a4.13 4.13 0 1 0 -8.26 0zM1794.37 313.5 a4.13 4.13 0 1 0 8.26 0 a4.13 4.13 0 1 0 -8.26 0z" fill="black"></path><path d="M804.37 1006.5 a4.13 4.13 0 1 0 8.26 0 a4.13 4.13 0 1 0 -8.26 0zM870.37 1039.5 a4.13 4.13 0 1 0 8.26 0 a4.13 4.13 0 1 0 -8.26 0z" fill="black"></path><path d="M1662.37 973.5 a4.13 4.13 0 1 0 8.26 0 a4.13 4.13 0 1 0 -8.26 0zM1596.37 973.5 a4.13 4.13 0 1 0 8.26 0 a4.13 4.13 0 1 0 -8.26 0z" fill="black"></path><path d="M210.37 115.5 a4.13 4.13 0 1 0 8.26 0 a4.13 4.13 0 1 0 -8.26 0zM309.37 16.5 a4.13 4.13 0 1 0 8.26 0 a4.13 4.13 0 1 0 -8.26 0z" fill="black"></path><path d="M870.37 16.5 a4.13 4.13 0 1 0 8.26 0 a4.13 4.13 0 1 0 -8.26 0zM1035.37 49.5 a4.13 4.13 0 1 0 8.26 0 a4.13 4.13 0 1 0 -8.26 0z" fill="black"></path><path d="M1563.37 148.5 a4.13 4.13 0 1 0 8.26 0 a4.13 4.13 0 1 0 -8.26 0zM1596.37 82.5 a4.13 4.13 0 1 0 8.26 0 a4.13 4.13 0 1 0 -8.26 0z" fill="black"></path><path d="M738.37 214.5 a4.13 4.13 0 1 0 8.26 0 a4.13 4.13 0 1 0 -8.26 0zM606.37 247.5 a4.13 4.13 0 1 0 8.26 0 a4.13 4.13 0 1 0 -8.26 0z" fill="black"></path><path d="M738.37 49.5 a4.13 4.13 0 1 0 8.26 0 a4.13 4.13 0 1 0 -8.26 0zM606.37 49.5 a4.13 4.13 0 1 0 8.26 0 a4.13 4.13 0 1 0 -8.26 0z" fill="black"></path><path d="M1761.37 1006.5 a4.13 4.13 0 1 0 8.26 0 a4.13 4.13 0 1 0 -8.26 0zM1827.37 1006.5 a4.13 4.13 0 1 0 8.26 0 a4.13 4.13 0 1 0 -8.26 0z" fill="black"></path><path d="M1431.37 214.5 a4.13 4.13 0 1 0 8.26 0 a4.13 4.13 0 1 0 -8.26 0zM1365.37 214.5 a4.13 4.13 0 1 0 8.26 0 a4.13 4.13 0 1 0 -8.26 0z" fill="black"></path><path d="M1332.37 676.5 a4.13 4.13 0 1 0 8.26 0 a4.13 4.13 0 1 0 -8.26 0zM1332.37 742.5 a4.13 4.13 0 1 0 8.26 0 a4.13 4.13 0 1 0 -8.26 0z" fill="black"></path><path d="M1299.37 379.5 a4.13 4.13 0 1 0 8.26 0 a4.13 4.13 0 1 0 -8.26 0zM1299.37 280.5 a4.13 4.13 0 1 0 8.26 0 a4.13 4.13 0 1 0 -8.26 0z" fill="black"></path><path d="M1530.37 1072.5 a4.13 4.13 0 1 0 8.26 0 a4.13 4.13 0 1 0 -8.26 0zM1563.37 1006.5 a4.13 4.13 0 1 0 8.26 0 a4.13 4.13 0 1 0 -8.26 0z" fill="black"></path><path d="M1893.37 907.5 a4.13 4.13 0 1 0 8.26 0 a4.13 4.13 0 1 0 -8.26 0zM1959.37 907.5 a4.13 4.13 0 1 0 8.26 0 a4.13 4.13 0 1 0 -8.26 0z" fill="black"></path><path d="M1431.37 16.5 a4.13 4.13 0 1 0 8.26 0 a4.13 4.13 0 1 0 -8.26 0zM1332.37 16.5 a4.13 4.13 0 1 0 8.26 0 a4.13 4.13 0 1 0 -8.26 0z" fill="black"></path><path d="M573.37 511.5 a4.13 4.13 0 1 0 8.26 0 a4.13 4.13 0 1 0 -8.26 0zM507.37 412.5 a4.13 4.13 0 1 0 8.26 0 a4.13 4.13 0 1 0 -8.26 0z" fill="black"></path><path d="M903.37 49.5 a4.13 4.13 0 1 0 8.26 0 a4.13 4.13 0 1 0 -8.26 0zM1002.37 49.5 a4.13 4.13 0 1 0 8.26 0 a4.13 4.13 0 1 0 -8.26 0z" fill="black"></path><path d="M738.37 1039.5 a4.13 4.13 0 1 0 8.26 0 a4.13 4.13 0 1 0 -8.26 0zM804.37 1039.5 a4.13 4.13 0 1 0 8.26 0 a4.13 4.13 0 1 0 -8.26 0z" fill="black"></path><path d="M507.37 1006.5 a4.13 4.13 0 1 0 8.26 0 a4.13 4.13 0 1 0 -8.26 0zM540.37 940.5 a4.13 4.13 0 1 0 8.26 0 a4.13 4.13 0 1 0 -8.26 0z" fill="black"></path><path d="M540.37 544.5 a4.13 4.13 0 1 0 8.26 0 a4.13 4.13 0 1 0 -8.26 0zM474.37 511.5 a4.13 4.13 0 1 0 8.26 0 a4.13 4.13 0 1 0 -8.26 0z" fill="black"></path><path d="M1233.37 1006.5 a4.13 4.13 0 1 0 8.26 0 a4.13 4.13 0 1 0 -8.26 0zM1299.37 1039.5 a4.13 4.13 0 1 0 8.26 0 a4.13 4.13 0 1 0 -8.26 0z" fill="black"></path><path d="M1068.37 676.5 a4.13 4.13 0 1 0 8.26 0 a4.13 4.13 0 1 0 -8.26 0zM1068.37 775.5 a4.13 4.13 0 1 0 8.26 0 a4.13 4.13 0 1 0 -8.26 0z" fill="black"></path><path d="M1464.37 1072.5 a4.13 4.13 0 1 0 8.26 0 a4.13 4.13 0 1 0 -8.26 0zM1530.37 1006.5 a4.13 4.13 0 1 0 8.26 0 a4.13 4.13 0 1 0 -8.26 0z" fill="black"></path><path d="M1101.37 610.5 a4.13 4.13 0 1 0 8.26 0 a4.13 4.13 0 1 0 -8.26 0zM1200.37 577.5 a4.13 4.13 0 1 0 8.26 0 a4.13 4.13 0 1 0 -8.26 0z" fill="black"></path><path d="M309.37 445.5 a4.13 4.13 0 1 0 8.26 0 a4.13 4.13 0 1 0 -8.26 0zM243.37 412.5 a4.13 4.13 0 1 0 8.26 0 a4.13 4.13 0 1 0 -8.26 0z" fill="black"></path><path d="M639.37 280.5 a4.13 4.13 0 1 0 8.26 0 a4.13 4.13 0 1 0 -8.26 0zM738.37 247.5 a4.13 4.13 0 1 0 8.26 0 a4.13 4.13 0 1 0 -8.26 0z" fill="black"></path><path d="M1530.37 82.5 a4.13 4.13 0 1 0 8.26 0 a4.13 4.13 0 1 0 -8.26 0zM1530.37 16.5 a4.13 4.13 0 1 0 8.26 0 a4.13 4.13 0 1 0 -8.26 0z" fill="black"></path><path d="M1002.37 346.5 a4.13 4.13 0 1 0 8.26 0 a4.13 4.13 0 1 0 -8.26 0zM969.37 280.5 a4.13 4.13 0 1 0 8.26 0 a4.13 4.13 0 1 0 -8.26 0z" fill="black"></path><path d="M342.37 247.5 a4.13 4.13 0 1 0 8.26 0 a4.13 4.13 0 1 0 -8.26 0zM408.37 214.5 a4.13 4.13 0 1 0 8.26 0 a4.13 4.13 0 1 0 -8.26 0z" fill="black"></path><path d="M1563.37 742.5 a4.13 4.13 0 1 0 8.26 0 a4.13 4.13 0 1 0 -8.26 0zM1497.37 742.5 a4.13 4.13 0 1 0 8.26 0 a4.13 4.13 0 1 0 -8.26 0z" fill="black"></path><path d="M12.37 511.5 a4.13 4.13 0 1 0 8.26 0 a4.13 4.13 0 1 0 -8.26 0zM12.37 577.5 a4.13 4.13 0 1 0 8.26 0 a4.13 4.13 0 1 0 -8.26 0z" fill="black"></path></mask></defs></svg>